<svg viewBox="0 0 360.069 72" xmlns="http://www.w3.org/2000/svg" xmlns:xlink="http://www.w3.org/1999/xlink" width="360.069336" height="72.000000" fill="none">
	<rect id="АйТиМэджикЛаб 1" width="360.069305" height="72.000000" x="0.000000" y="0.000000" fill="rgb(255,255,255)" fill-opacity="0" />
	<path id="Vector" d="M69.7922 55.6457L69.7922 16.6213L77.8023 16.6213L77.8023 55.6457L69.7922 55.6457Z" fill="rgb(255,255,255)" fill-rule="nonzero" />
	<path id="Vector" d="M100.988 55.6457L92.9895 55.6457L92.9895 23.6345L81.5076 23.6345L81.5076 16.6213L112.531 16.6213L112.531 23.6345L100.988 23.6345L100.988 55.6457Z" fill="rgb(255,255,255)" fill-rule="nonzero" />
	<path id="Vector" d="M163.373 55.973L155.363 55.973L155.363 28.3918L145.623 49.4039L139.424 49.4039L129.685 28.4696L129.685 55.973L121.69 55.973L121.69 16.9486L131.854 16.9486L142.518 40.5089L153.192 16.9486L163.385 16.9486L163.373 55.973Z" fill="rgb(255,255,255)" fill-rule="nonzero" />
	<path id="Vector" d="M192.932 55.9727L186.413 55.9727L186.024 52.8791C185.064 54.026 183.854 54.9377 182.486 55.5441C181.029 56.1867 179.451 56.5095 177.858 56.4909C176.178 56.5215 174.514 56.1614 172.996 55.4389C171.634 54.7903 170.474 53.7827 169.641 52.5246C168.825 51.2314 168.4 49.7293 168.419 48.1998C168.438 46.6703 168.899 45.1791 169.747 43.9062C170.675 42.6035 171.935 41.5741 173.397 40.9256C175.063 40.1839 176.869 39.8156 178.692 39.8463C179.872 39.8465 181.047 39.9772 182.198 40.2359C183.323 40.4787 184.418 40.8445 185.463 41.3269L185.463 40.6489C185.486 39.6804 185.179 38.7327 184.594 37.9606C183.967 37.1717 183.139 36.565 182.198 36.2034C181.119 35.7746 179.966 35.5628 178.805 35.58C177.599 35.5818 176.401 35.7751 175.256 36.1527C174.086 36.5338 172.991 37.1137 172.018 37.8671L169.992 32.1708C171.683 31.2927 173.467 30.6079 175.31 30.1293C177.013 29.6844 178.764 29.454 180.523 29.4435C182.8 29.3834 185.057 29.8923 187.088 30.924C188.895 31.8837 190.384 33.3485 191.373 35.1397C192.442 37.1137 192.979 39.3319 192.932 41.5763L192.932 55.9727ZM179.514 50.744C180.495 50.7466 181.464 50.524 182.346 50.0933C183.212 49.692 183.967 49.0847 184.544 48.3245C185.096 47.6167 185.41 46.7518 185.44 45.8543L185.44 45.675C184.662 45.1457 183.808 44.7371 182.907 44.4633C181.992 44.1803 181.04 44.0358 180.082 44.0347C178.853 43.9816 177.637 44.3081 176.6 44.9698C176.187 45.2241 175.846 45.5799 175.609 46.0035C175.372 46.427 175.248 46.9042 175.248 47.3894C175.241 48.0111 175.437 48.6181 175.805 49.1193C176.198 49.6462 176.724 50.059 177.329 50.3154C178.015 50.6025 178.754 50.7432 179.498 50.7284L179.514 50.744Z" fill="rgb(255,255,255)" fill-rule="nonzero" />
	<path id="Vector" d="M209.377 56.2689C207.154 56.3026 204.969 55.6924 203.084 54.5118C201.227 53.3411 199.717 51.6927 198.713 49.7389C197.631 47.6106 197.087 45.2495 197.128 42.8621C197.084 40.4695 197.628 38.1026 198.713 35.9698C199.719 34.0173 201.228 32.3694 203.084 31.1969C204.978 30.0165 207.172 29.4077 209.404 29.4436C211.151 29.4222 212.882 29.791 214.469 30.5229C215.984 31.2265 217.335 32.2406 218.434 33.4995L218.773 29.9618L225.326 29.9618L225.326 55.2404C225.388 57.8735 224.736 60.4743 223.44 62.7678C222.188 64.9053 220.34 66.6315 218.123 67.7354C215.617 68.9511 212.857 69.5496 210.074 69.481C205.865 69.5004 201.775 68.0877 198.475 65.4757L201.503 59.3898C202.547 60.4729 203.8 61.333 205.186 61.9183C206.573 62.5036 208.063 62.8018 209.567 62.7951C211.066 62.8301 212.55 62.4941 213.888 61.8171C215.096 61.1853 216.105 60.2303 216.802 59.0586C217.522 57.8102 217.885 56.3886 217.854 54.9481L217.854 52.8169C216.742 53.9292 215.42 54.8082 213.964 55.4023C212.509 55.9965 210.949 56.2937 209.377 56.2767L209.377 56.2689ZM211.301 49.6104C212.45 49.6283 213.585 49.3605 214.605 48.8311C215.575 48.3179 216.392 47.5553 216.969 46.622C217.564 45.658 217.871 44.5441 217.854 43.4115L217.854 42.2932C217.871 41.1628 217.56 40.0516 216.958 39.0945C216.371 38.1701 215.555 37.4132 214.589 36.8971C213.576 36.3646 212.445 36.0967 211.301 36.1178C210.142 36.0976 209 36.3933 207.996 36.9734C206.993 37.5534 206.166 38.3958 205.605 39.4101C205.021 40.4723 204.725 41.6694 204.748 42.8816C204.727 44.0973 205.023 45.2977 205.605 46.3648C206.153 47.3635 206.961 48.1954 207.943 48.7726C208.966 49.3511 210.126 49.6406 211.301 49.6104Z" fill="rgb(255,255,255)" fill-rule="nonzero" />
	<path id="Vector" d="M238.903 55.9729L231.455 55.9729L231.455 29.9502L238.903 29.9502L238.903 55.9729ZM235.159 23.7514C234.694 23.761 234.232 23.6735 233.803 23.4943C233.374 23.3152 232.986 23.0484 232.666 22.7111C232.335 22.3802 232.075 21.9861 231.9 21.5523C231.726 21.1185 231.64 20.6539 231.649 20.1864C231.638 19.7182 231.724 19.2527 231.899 18.8185C232.074 18.3843 232.337 17.9907 232.67 17.6616C232.992 17.3278 233.38 17.0644 233.809 16.8881C234.238 16.7117 234.699 16.6262 235.164 16.6369C235.629 16.6369 236.091 16.7287 236.522 16.9071C236.952 17.0854 237.344 17.3469 237.673 17.6765C238.003 18.0061 238.264 18.3974 238.443 18.828C238.621 19.2587 238.712 19.7202 238.712 20.1864C238.712 20.6525 238.621 21.114 238.443 21.5447C238.264 21.9753 238.003 22.3666 237.673 22.6962C237.344 23.0257 236.952 23.2872 236.522 23.4656C236.091 23.644 235.629 23.7358 235.164 23.7358L235.159 23.7514Z" fill="rgb(255,255,255)" fill-rule="nonzero" />
	<path id="Vector" d="M268.353 51.8232C267.065 53.2925 265.469 54.4592 263.677 55.2401C261.572 56.1352 259.294 56.5529 257.008 56.4633C254.722 56.3737 252.484 55.779 250.455 54.722C248.408 53.5866 246.706 51.9203 245.526 49.8984C244.343 47.7728 243.722 45.3804 243.722 42.9476C243.722 40.5149 244.343 38.1225 245.526 35.9968C246.713 33.9767 248.422 32.3144 250.474 31.185C252.671 29.9937 255.139 29.3899 257.639 29.4317C259.714 29.4075 261.77 29.8217 263.674 30.6473C265.453 31.4231 267.042 32.5772 268.329 34.0293L263.934 38.6346C263.232 37.836 262.354 37.2096 261.371 36.8033C260.349 36.3625 259.246 36.137 258.133 36.141C256.917 36.1191 255.715 36.4188 254.651 37.0098C253.643 37.5742 252.807 38.4009 252.231 39.4021C251.628 40.4707 251.322 41.6817 251.347 42.9087C251.324 44.154 251.629 45.3832 252.231 46.4737C252.798 47.492 253.635 48.3336 254.651 48.9049C255.715 49.4959 256.917 49.7956 258.133 49.7738C259.251 49.775 260.356 49.5497 261.383 49.1114C262.367 48.7111 263.242 48.082 263.934 47.2763L268.353 51.8232Z" fill="rgb(255,255,255)" fill-rule="nonzero" />
	<path id="Vector" d="M298.413 55.973L272.93 55.973L272.93 16.9486L280.94 16.9486L280.94 48.9598L298.413 48.9598L298.413 55.973Z" fill="rgb(255,255,255)" fill-rule="nonzero" />
	<path id="Vector" d="M325.877 55.9727L319.374 55.9727L318.985 52.8792C318.024 54.0261 316.815 54.9377 315.447 55.5442C313.99 56.1867 312.411 56.5096 310.819 56.4909C309.138 56.5216 307.474 56.1615 305.956 55.439C304.595 54.7904 303.435 53.7828 302.602 52.5246C301.785 51.2314 301.361 49.7293 301.379 48.1998C301.398 46.6704 301.859 45.1791 302.708 43.9062C303.636 42.6036 304.896 41.5742 306.358 40.9256C308.023 40.1839 309.83 39.8156 311.653 39.8464C312.832 39.8465 314.008 39.9772 315.159 40.236C316.284 40.4787 317.379 40.8446 318.424 41.3269L318.424 40.649C318.446 39.6804 318.14 38.7328 317.555 37.9606C316.927 37.1717 316.1 36.565 315.159 36.2034C314.079 35.7747 312.926 35.5628 311.766 35.58C310.56 35.5818 309.362 35.7752 308.216 36.1528C307.046 36.5338 305.951 37.1138 304.979 37.8671L302.953 32.1709C304.636 31.2901 306.414 30.6014 308.251 30.1176C309.953 29.6728 311.705 29.4424 313.464 29.4318C315.747 29.3728 318.01 29.8858 320.044 30.9241C321.852 31.8838 323.34 33.3485 324.33 35.1398C325.387 37.117 325.912 39.335 325.853 41.5763L325.877 55.9727ZM312.459 50.7284C313.44 50.7311 314.409 50.5084 315.291 50.0778C316.157 49.6764 316.912 49.0691 317.489 48.3089C318.039 47.6017 318.352 46.7383 318.381 45.8426L318.381 45.6634C317.602 45.1341 316.749 44.7255 315.849 44.4517C314.934 44.1686 313.982 44.0242 313.024 44.0231C311.795 43.97 310.578 44.2965 309.541 44.9582C309.127 45.2124 308.786 45.5683 308.55 45.9919C308.313 46.4154 308.189 46.8926 308.189 47.3777C308.183 47.9994 308.378 48.6064 308.746 49.1076C309.138 49.6345 309.664 50.0474 310.269 50.3038C310.961 50.5976 311.707 50.7423 312.459 50.7284Z" fill="rgb(255,255,255)" fill-rule="nonzero" />
	<path id="Vector" d="M338.25 55.9729L331.7 55.9729L331.7 16.9486L339.165 16.9486L339.165 32.923C340.283 31.8029 341.613 30.9176 343.078 30.3195C344.542 29.7212 346.111 29.4222 347.694 29.4398C349.941 29.3995 352.153 30.0082 354.063 31.1931C355.931 32.3767 357.448 34.038 358.458 36.0049C359.557 38.153 360.11 40.5391 360.067 42.9518C360.108 45.3648 359.554 47.7507 358.454 49.8988C357.446 51.8698 355.928 53.5351 354.059 54.7222C352.149 55.9071 349.937 56.5159 347.689 56.4755C345.974 56.4947 344.274 56.1421 342.707 55.4419C341.139 54.7418 339.743 53.7107 338.612 52.4196L338.25 55.9729ZM345.792 49.8092C346.983 49.8283 348.156 49.5225 349.185 48.9247C350.18 48.3388 350.997 47.4946 351.551 46.4818C352.142 45.3979 352.443 44.179 352.423 42.944C352.444 41.719 352.142 40.51 351.551 39.4375C350.995 38.4296 350.178 37.5899 349.185 37.0063C348.156 36.4084 346.983 36.1026 345.792 36.1218C344.656 36.1063 343.535 36.3812 342.535 36.9205C341.579 37.4439 340.774 38.2048 340.198 39.1297C339.597 40.1042 339.25 41.213 339.184 42.3557L339.184 43.5051C339.25 44.6514 339.598 45.7636 340.198 46.7428C340.774 47.6749 341.579 48.4446 342.535 48.9793C343.533 49.5291 344.657 49.8097 345.796 49.7936L345.792 49.8092Z" fill="rgb(255,255,255)" fill-rule="nonzero" />
	<path id="Vector" d="M51.0217 63.7185C50.1335 68.3044 40.6391 71.9473 29.0136 71.9473C19.8737 71.9473 12.0507 69.7069 8.67291 66.4926C7.83053 65.773 7.24407 64.7996 7.00153 63.7185C6.96002 63.5176 6.97214 63.3093 7.03659 63.1146C7.11095 62.9375 7.20644 62.77 7.32099 62.6159L13.1649 54.2936C14.6918 55.3673 16.325 56.2813 18.0387 57.0209C21.5009 58.5219 25.2343 59.2962 29.0077 59.2962C32.7813 59.2962 36.5146 58.5219 39.9768 57.0209C41.012 56.5683 42.0213 56.0584 43 55.4936C43.6483 55.1108 44.2764 54.6946 44.8818 54.2468L50.6439 62.6042C50.791 62.7544 50.9004 62.9373 50.9633 63.138C51.0542 63.3175 51.075 63.5244 51.0217 63.7185Z" fill="rgb(255,255,255)" fill-rule="nonzero" />
	<path id="Vector" d="M30.5401 26.8409C30.2558 28.4773 29.4027 29.6501 27.7668 29.3657C26.1308 29.0812 25.7412 27.6942 25.9905 26.0967C26.2398 24.4993 27.1981 23.3694 28.7639 23.6421C30.2558 23.8915 30.7894 25.3136 30.5401 26.8409ZM27.5915 26.3617C27.4474 27.25 27.4123 28.0682 27.981 28.1734C28.5497 28.2786 28.76 27.5344 28.9431 26.6149C29.0833 25.8006 29.1534 24.9824 28.5847 24.8733C28.0161 24.7643 27.7434 25.4538 27.5915 26.3617Z" fill="rgb(226,204,179)" fill-rule="nonzero" />
	<path id="Vector" d="M47.2889 12.7952C46.7553 13.9329 45.9373 14.6108 44.835 14.077C43.7327 13.5433 43.6976 12.4757 44.1962 11.4082C44.6948 10.3406 45.5829 9.6666 46.6501 10.1653C47.7175 10.664 47.7525 11.7666 47.2889 12.7952ZM45.2751 11.8718C44.9908 12.4757 44.8116 13.0407 45.2051 13.2238C45.5985 13.4069 45.914 12.9043 46.1983 12.2614C46.4476 11.6926 46.6618 11.1237 46.2684 10.9484C45.875 10.7731 45.5478 11.2679 45.2751 11.8718Z" fill="rgb(226,204,179)" fill-rule="nonzero" />
	<path id="Vector" d="M20.6911 9.99777C20.6561 11.2446 20.1575 12.203 18.95 12.168C17.7425 12.1329 17.2439 11.1666 17.279 9.951C17.314 8.73538 17.8476 7.81982 19.0201 7.81982C20.1926 7.81982 20.7301 8.8484 20.6911 9.99777ZM18.4865 9.96271C18.4865 10.6406 18.5605 11.2446 18.9851 11.2446C19.4097 11.2446 19.4836 10.6757 19.5187 9.96271C19.5187 9.35878 19.4836 8.75492 19.0552 8.75492C18.6267 8.75492 18.4865 9.28865 18.4865 9.96271Z" fill="rgb(242,228,205)" fill-rule="nonzero" />
	<path id="Vector" d="M7.21538 22.0057C7.39455 22.785 7.25044 23.4279 6.50644 23.6421C5.76246 23.8564 5.29504 23.2876 5.11975 22.5746C4.94446 21.8616 5.11975 21.1525 5.86373 20.9733C6.60771 20.794 7.03621 21.2966 7.21538 22.0057ZM5.82867 22.3603C5.93774 22.7889 6.07797 23.1395 6.36231 23.0733C6.64666 23.0071 6.57655 22.6447 6.46749 22.1849C6.36231 21.7954 6.25715 21.4369 5.9728 21.507C5.68845 21.5771 5.72351 21.9356 5.82867 22.3603Z" fill="rgb(242,228,205)" fill-rule="nonzero" />
	<path id="Vector" d="M28.4094 16.7069C28.2302 17.4862 28.3743 18.129 29.1183 18.3433C29.8623 18.5576 30.3297 17.9888 30.505 17.2758C30.6803 16.5628 30.505 15.8536 29.761 15.6783C29.017 15.503 28.5846 15.9978 28.4094 16.7069ZM29.7961 17.0653C29.687 17.49 29.5468 17.8446 29.2975 17.7744C29.0482 17.7043 29.0832 17.3498 29.1884 16.8861C29.2975 16.5316 29.4026 16.138 29.687 16.2082C29.9714 16.2783 29.9013 16.6368 29.7961 17.0653Z" fill="rgb(242,228,205)" fill-rule="nonzero" />
	<path id="Vector" d="M16.2111 22.7889L14.2207 18.9122C13.9974 19.1295 13.7324 19.2992 13.4416 19.4109L12.8379 18.242C13.2819 17.8993 13.5853 17.4059 13.6909 16.855L14.8595 16.2511L17.812 21.9746L16.2111 22.7889Z" fill="rgb(226,204,179)" fill-rule="nonzero" />
	<path id="Vector" d="M32.1071 9.38194L32.002 6.49097C31.8087 6.56595 31.5995 6.5901 31.3943 6.5611L31.3592 5.71173C31.5399 5.67498 31.7115 5.60266 31.864 5.49899C32.0164 5.39531 32.1467 5.26234 32.2474 5.10782L33.1393 5.07275L33.3146 9.30405L32.1071 9.38194Z" fill="rgb(226,204,179)" fill-rule="nonzero" />
	<path id="Vector" d="M48.9608 22.4657L50.2774 20.5799C50.1162 20.5333 49.969 20.4476 49.8489 20.3306L50.2384 19.7617C50.5081 19.8806 50.8129 19.8931 51.0914 19.7968L51.6601 20.1864L49.7398 22.9605L48.9608 22.4657Z" fill="rgb(242,228,205)" fill-rule="nonzero" />
	<path id="Vector" d="M39.3261 25.7773L40.3544 20.6889C39.9836 20.7254 39.6093 20.6896 39.2521 20.5837L39.5754 19.0564C40.2532 19.065 40.9105 18.8237 41.4218 18.3784L42.9798 18.6979L41.4568 26.202L39.3261 25.7773Z" fill="rgb(242,228,205)" fill-rule="nonzero" />
	<path id="Vector" d="M54.0096 30.2579L54.0096 30.328C54.0566 36.8545 51.5093 43.1325 46.9279 47.7806C42.3464 52.4289 36.1062 55.0666 29.5802 55.1136C23.054 55.1607 16.7766 52.6131 12.1286 48.0314C7.48073 43.4496 4.84316 37.2091 4.79614 30.6825L4.79614 30.1137C4.8351 28.6916 5.08055 27.6591 5.57533 26.9149C8.53232 22.5745 19.2695 29.4786 29.547 33.6709C33.5287 35.3073 37.4402 36.5152 40.818 36.5152C48.641 36.5152 51.8396 29.8916 53.1214 26.95L54.0096 30.2579Z" fill="rgb(226,204,179)" fill-rule="nonzero" />
	<path id="Vector" d="M54.0095 30.3281C53.9961 35.8175 52.1487 41.1448 48.7608 45.4639C45.3729 49.7828 40.6389 52.8456 35.311 54.1656C29.983 55.4857 24.3668 54.9871 19.3547 52.7492C14.3426 50.5112 10.2221 46.6624 7.64787 41.8141C6.58926 39.1036 6.03473 36.2224 6.01155 33.3126L6.01155 32.7438C6.04662 31.3216 6.29595 30.2931 6.79074 29.545C9.73996 25.1929 20.4772 32.1048 30.7547 36.301C34.7363 37.9374 38.6479 39.1453 42.0256 39.1453C49.2447 39.1453 52.5174 33.5269 54.0095 30.3281Z" fill="rgb(228.274,216.729,200.837)" fill-rule="nonzero" />
	<path id="Vector" d="M54.045 30.2581L54.045 30.3983C54.0459 33.6225 53.4049 36.8144 52.1594 39.7882C50.9226 42.7659 49.1131 45.4717 46.8336 47.752C44.5616 50.0347 41.8534 51.8368 38.8703 53.0508C35.8928 54.279 32.7019 54.9066 29.4811 54.8976C29.1496 54.9034 28.8179 54.8918 28.4877 54.8625C22.1924 54.623 16.2302 51.9717 11.8354 47.4577C7.44067 42.9437 4.9497 36.9125 4.87826 30.6126L4.87826 30.0438C4.87241 29.8302 4.88414 29.6165 4.91333 29.4048C4.9464 28.5015 5.20344 27.6205 5.66134 26.8411C6.83013 29.6152 9.78326 35.9816 17.0024 36.5504C17.334 36.5797 17.667 36.5914 17.9998 36.5855C21.4477 36.5855 25.4994 35.3076 29.5902 33.5971C36.8795 30.5775 44.3948 26.2723 49.1127 25.6684C50.9244 25.419 52.3113 25.7385 53.1645 26.8801C53.7255 27.6944 54.045 28.762 54.045 30.2581Z" fill="rgb(246.909,242.127,235.275)" fill-rule="nonzero" />
	<path id="Vector" d="M52.0895 30.258L52.0895 30.3983C52.082 36.7414 49.6194 42.8354 45.218 47.4026C40.8167 51.9699 34.8181 54.656 28.4801 54.8976C22.1848 54.658 16.2227 52.0067 11.8279 47.4927C7.43305 42.9787 4.94213 36.9475 4.87069 30.6477L4.87069 30.0788C4.86484 29.8652 4.87657 29.6515 4.90576 29.4398C6.64724 32.6035 9.97045 36.6205 16.0715 36.6205C16.3914 36.6264 16.7114 36.6147 17.0299 36.5854C17.3628 36.5796 17.6957 36.5913 18.0273 36.6205C21.4752 36.6205 25.527 35.3426 29.6177 33.6361C36.907 30.6126 44.4223 26.3073 49.1403 25.7034C49.5547 25.741 49.9548 25.8744 50.309 26.093C50.6653 26.3056 50.9784 26.5831 51.2323 26.9112C51.77 27.6944 52.0544 28.7619 52.0895 30.258Z" fill="rgb(242.005,228.071,205.471)" fill-rule="nonzero" />
	<path id="Vector" d="M46.3663 60.9095C45.4779 65.4953 35.9836 69.1227 24.3542 69.1227C18.2375 69.1227 12.6936 68.1291 8.70812 66.4927C7.86567 65.7731 7.27927 64.7997 7.03673 63.7186C6.99515 63.5175 7.0086 63.3088 7.07568 63.1147C7.14698 62.9361 7.24268 62.7683 7.36007 62.616L13.204 54.2937C14.7238 55.359 16.3445 56.2726 18.0428 57.021C21.4988 58.522 25.2264 59.2965 28.9942 59.2965C32.7621 59.2965 36.4897 58.522 39.9457 57.021C40.9698 56.5703 41.9686 56.0644 42.9378 55.5054L45.9221 59.8419C46.0617 59.9845 46.1704 60.1542 46.2415 60.3406C46.3521 60.5082 46.3966 60.7109 46.3663 60.9095Z" fill="rgb(235.139,235.139,235.139)" fill-rule="nonzero" />
	<path id="Vector" d="M54.645 43.9453C52.1078 48.3798 48.4388 52.0612 44.0129 54.6131C43.7285 54.7923 43.4441 54.9364 43.1597 55.1118C38.9271 57.3781 34.2004 58.5639 29.3993 58.5639C24.5982 58.5639 19.8715 57.3781 15.6388 55.1118C15.3461 54.9602 15.0613 54.7938 14.7857 54.6131C10.3674 52.0512 6.70067 48.3722 4.15361 43.9453C1.62466 39.5157 0.288937 34.5054 0.277145 29.4047C0.273223 25.5853 1.02256 21.8027 2.48224 18.2733C3.94267 14.734 6.09656 11.5228 8.81707 8.82887C11.5262 6.11766 14.7397 3.96283 18.2764 2.48588C23.5972 0.28493 29.4515 -0.287189 35.0977 0.841989C40.7439 1.97117 45.928 4.75083 49.9932 8.82887C52.6965 11.5413 54.8456 14.7545 56.3202 18.2889C57.7766 21.8137 58.5245 25.5908 58.5214 29.4047C58.5096 34.5054 57.1739 39.5157 54.645 43.9453Z" fill-rule="nonzero" stroke="rgb(235.139,235.139,235.139)" stroke-width="1.000000" />
</svg>
