<svg viewBox="0 0 358.2 72" xmlns="http://www.w3.org/2000/svg" xmlns:xlink="http://www.w3.org/1999/xlink" width="358.199951" height="72.000000" fill="none">
	<rect id="Lantera_white 1" width="358.200012" height="72.000000" x="0.000000" y="0.000000" fill="rgb(255,255,255)" fill-opacity="0" />
	<path id="Vector" d="M85.0129 48.9263L101.798 48.9263C101.656 47.8206 101.582 46.6939 101.582 45.5508C101.582 31.0033 113.309 19.2743 127.854 19.2743C142.309 19.2743 154.126 31.0033 154.126 45.5508L154.126 45.7326C154.126 27.8209 167.308 19.0925 180.399 19.0925C181.693 19.0925 182.987 19.1766 184.268 19.3455L184.268 0L206.63 0L206.63 20.9109L222.175 20.9109L222.175 42.0048L206.63 42.0048L206.63 44.0477C206.657 44.6001 206.67 45.1617 206.67 45.7326L206.67 49.846C206.806 50.3473 207.277 50.7333 207.812 50.7334L225.386 50.7334C225.023 49.0004 224.832 47.2059 224.832 45.3689C224.832 31.0033 235.013 19.3652 251.377 19.0925C259.832 19.0925 269.376 20.9109 274.467 29.7303C277.285 34.731 277.648 44.9143 272.194 48.642L253.831 48.642C257.831 46.4599 256.922 40.5501 251.286 40.4592C245.014 40.2774 244.65 49.8241 251.104 49.8241L276.648 49.8241L276.648 42.7322C276.648 28.4575 286.649 19.0925 300.921 19.0925L332.376 19.0925L332.374 19.0968C346.611 19.351 358.17 30.9815 358.17 45.3689L358.17 71.6453L336.353 71.6453L336.353 45.3689C336.353 42.914 334.353 40.8228 331.899 40.8228C329.353 40.8228 327.354 42.914 327.354 45.3689C327.354 47.8239 329.353 49.915 331.899 49.915L335.08 49.915L335.08 71.6453L331.899 71.6453C317.353 71.6453 305.627 59.8256 305.627 45.3689C305.627 43.6903 305.783 42.0491 306.082 40.4592L300.376 40.4592C299.467 40.4592 299.012 41.0046 299.012 41.823L299.012 71.9182L184.307 71.9182L184.307 45.7326C184.307 43.0959 182.398 41.4593 180.399 41.4593C178.49 41.4593 176.489 43.0959 176.489 45.7326L176.489 71.9182L154.126 71.9182L154.126 71.8273L132.309 71.8273L132.309 45.5508C132.309 43.0959 130.309 41.0047 127.854 41.0047C125.309 41.0047 123.309 43.0959 123.309 45.5508C123.309 48.0057 125.309 50.0969 127.854 50.0969L131.036 50.0969L131.036 71.6795L131.127 71.9295L61.3771 71.9295L61.3771 0L85.0129 0L85.0129 48.9263Z" fill="rgb(255,255,255)" fill-rule="nonzero" />
	<path id="Vector" d="M16.7205 19.2273C26.2815 19.2273 33.3485 27.2161 33.2562 36.6828L33.2562 39.0634C34.7657 38.6509 36.3606 38.4305 38.0106 38.4305C46.783 38.4305 54.4473 43.8818 55.1399 53.075C55.2785 54.7843 54.9091 57.3712 54.1242 58.4339L41.6581 58.4339C42.4891 57.5099 42.8123 56.3549 42.8123 55.2C42.8123 52.613 41.0116 50.5341 38.0567 50.5341C35.5173 50.5342 33.4859 52.613 33.4859 55.1538C33.4859 57.0941 35.0095 59.1729 37.8721 59.1729L56.5712 59.1729L56.5712 71.6923L38.1952 71.6923C28.7302 71.7846 20.7428 64.7166 20.7428 55.1538C20.7428 55.1232 20.7432 55.0925 20.7433 55.0619L20.7388 55.0619L20.7388 36.3596C20.7388 33.4965 18.6603 31.9725 16.7205 31.9725C14.18 31.9725 12.1016 34.0045 12.1016 36.5442C12.1016 39.4997 14.18 41.3006 16.7667 41.3006C17.9213 41.3006 19.0761 40.9773 19.9999 40.1462L19.9999 52.6143C18.9376 53.3994 16.3509 53.7688 14.6419 53.6303C5.45036 52.9376 1.10543e-05 45.2721 1.77119e-14 36.4981C-4.17764e-07 26.9392 7.39024 19.2273 16.7205 19.2273Z" fill="rgb(255,255,255)" fill-rule="nonzero" />
</svg>
