<svg viewBox="0 0 337.456 121" xmlns="http://www.w3.org/2000/svg" xmlns:xlink="http://www.w3.org/1999/xlink" width="337.455566" height="121.000000" fill="none">
	<rect id="НКБ ВС_лого 1" width="337.455536" height="120.999992" x="0.000000" y="0.000000" fill="rgb(255,255,255)" fill-opacity="0" />
	<path id="Vector" d="M49.3292 35.3589L0.0102499 12.7161L0 0L49.3292 22.6223L49.3292 35.3589Z" fill="rgb(255,255,255)" fill-rule="nonzero" />
	<path id="Vector" d="M49.3283 48.5056L98.6371 25.8627L98.6471 13.1466L49.3283 35.769L49.3283 48.5056Z" fill="rgb(255,255,255)" fill-rule="nonzero" />
	<path id="Vector" d="M134.224 100.386L123.097 100.386L123.097 120.178L111.795 120.178L111.795 71.0566L123.097 71.0566L123.097 90.9205L134.501 90.9205L147.413 71.0566L159.412 71.0566L143.342 94.7761L159.904 120.178L146.993 120.178L134.224 100.386Z" fill="rgb(255,255,255)" fill-rule="nonzero" />
	<path id="Vector" d="M169.421 71.0566L215.15 71.0566L215.15 80.1118L180.723 80.1118L180.723 90.2129L200.413 90.2129C206.361 90.2129 210.884 91.4538 213.991 93.9351C217.109 96.4174 218.658 99.9959 218.658 104.673C218.658 109.585 216.924 113.399 213.469 116.117C210.002 118.834 205.11 120.188 198.803 120.188L169.421 120.188L169.421 71.0566ZM198.167 111.758C201.069 111.758 203.294 111.184 204.833 110.036C206.382 108.887 207.151 107.215 207.151 105.021C207.151 100.714 204.156 98.5604 198.167 98.5604L180.723 98.5604L180.723 111.758L198.167 111.758Z" fill="rgb(255,255,255)" fill-rule="nonzero" />
	<path id="Vector" d="M283.063 98.9195C284.653 100.929 285.452 103.411 285.452 106.354C285.452 110.702 283.801 114.096 280.509 116.527C277.207 118.957 272.5 120.178 266.367 120.178L238.308 120.178L238.308 71.0566L265.033 71.0566C270.736 71.0566 275.187 72.1539 278.366 74.3587C281.545 76.5635 283.134 79.6913 283.134 83.7625C283.134 86.2032 282.53 88.3362 281.309 90.1821C280.089 92.0276 278.386 93.4948 276.181 94.5712C279.176 95.4528 281.473 96.9091 283.063 98.9195ZM249.599 91.4123L264.039 91.4123C266.51 91.4123 268.387 90.9106 269.649 89.9052C270.92 88.9002 271.546 87.4132 271.546 85.4546C271.546 83.5369 270.9 82.0602 269.618 81.0347C268.326 80.0092 266.469 79.4862 264.039 79.4862L249.599 79.4862L249.599 91.4123ZM273.935 105.441C273.935 101.37 271.269 99.34 265.936 99.34L249.599 99.34L249.599 111.768L265.936 111.768C271.269 111.758 273.935 109.656 273.935 105.441Z" fill="rgb(255,255,255)" fill-rule="nonzero" />
	<path id="Vector" d="M98.6471 71.0566L98.6471 120.178L87.2741 120.178L87.2741 100.037L60.7737 100.037L60.7737 120.178L49.4003 120.178L49.4003 71.0566L60.7737 71.0566L60.7737 90.4278L87.2741 90.4278L87.2741 71.0566L98.6471 71.0566Z" fill="rgb(255,255,255)" fill-rule="nonzero" />
	<path id="Vector" d="M310.475 81.8959C312.598 80.7064 315.018 80.1424 317.644 80.009L317.644 79.9988L337.396 79.9988L337.396 70.2361L317.644 70.2361C312.752 70.2976 308.342 71.3642 304.404 73.4766C300.353 75.6507 297.174 78.6657 294.856 82.5317C292.539 86.3876 291.379 90.7563 291.379 95.617C291.379 100.488 292.539 104.847 294.856 108.702C297.174 112.558 300.353 115.583 304.404 117.757C308.352 119.88 312.773 120.957 317.644 120.998L337.396 120.998L337.396 111.235L317.644 111.235L317.644 111.214C315.018 111.082 312.598 110.507 310.475 109.328C308.086 107.995 306.23 106.139 304.896 103.75C303.563 101.359 302.897 98.6524 302.897 95.6071C302.897 92.5717 303.563 89.8538 304.896 87.4644C306.23 85.0954 308.096 83.2291 310.475 81.8959Z" fill="rgb(255,255,255)" fill-rule="nonzero" />
</svg>
