<svg viewBox="0 0 423.311 105" xmlns="http://www.w3.org/2000/svg" xmlns:xlink="http://www.w3.org/1999/xlink" width="423.311279" height="105.000000" fill="none">
	<rect id="PLJONKINS_белый 1" width="423.311218" height="105.000000" x="0.000000" y="0.000000" fill="rgb(255,255,255)" fill-opacity="0" />
	<path id="Vector" d="M45.4911 35.7704L64.714 35.7704C68.9009 35.7704 72.0322 36.766 74.1087 38.7572C76.2021 40.7484 77.2486 43.582 77.2486 47.2583C77.2486 51.0366 76.1085 53.9892 73.8277 56.1166C71.5643 58.2441 68.101 59.3076 63.4379 59.3076L57.1065 59.3076L57.1065 73.195L45.4911 73.195L45.4911 35.7704ZM57.1065 51.7258L59.9402 51.7258C62.17 51.7258 63.7354 51.3428 64.6377 50.5769C65.5396 49.794 65.9906 48.7985 65.9906 47.5899C65.9906 46.4157 65.5993 45.4202 64.8164 44.6032C64.0335 43.7863 62.5613 43.3779 60.3998 43.3779L57.1065 43.3779L57.1065 51.7258ZM83.3243 35.7704L94.8886 35.7704L94.8886 63.9794L112.937 63.9794L112.937 73.195L83.3243 73.195L83.3243 35.7704ZM133.768 35.7704L145.358 35.7704L145.358 56.1166C145.358 60.3881 144.975 63.6387 144.209 65.8686C143.461 68.098 141.937 69.9871 139.64 71.5355C137.36 73.0844 134.432 73.8586 130.858 73.8586C127.08 73.8586 124.153 73.3484 122.077 72.3272C120 71.3059 118.392 69.8167 117.251 67.8596C116.128 65.8856 115.465 63.4518 115.26 60.5584L126.314 59.0523C126.331 60.7031 126.476 61.9287 126.748 62.7286C127.02 63.5281 127.48 64.1751 128.127 64.6687C128.569 64.992 129.199 65.1536 130.016 65.1536C131.309 65.1536 132.254 64.677 132.849 63.7241C133.462 62.7539 133.768 61.1288 133.768 58.8479L133.768 35.7704ZM151.613 54.5081C151.613 48.3985 153.315 43.6417 156.718 40.2379C160.122 36.8341 164.862 35.1322 170.938 35.1322C177.167 35.1322 181.966 36.8086 185.336 40.1613C188.706 43.497 190.39 48.1772 190.39 54.2018C190.39 58.5757 189.65 62.167 188.17 64.975C186.706 67.766 184.579 69.9444 181.787 71.5103C179.013 73.0591 175.55 73.8333 171.397 73.8333C167.177 73.8333 163.679 73.1611 160.905 71.8165C158.148 70.472 155.91 68.3446 154.191 65.4346C152.472 62.5243 151.613 58.8819 151.613 54.5081ZM163.177 54.5595C163.177 58.3373 163.875 61.0521 165.27 62.7029C166.683 64.3537 168.598 65.1793 171.015 65.1793C173.499 65.1793 175.422 64.3707 176.784 62.7539C178.145 61.137 178.826 58.2354 178.826 54.0489C178.826 50.5259 178.111 47.9558 176.682 46.339C175.269 44.7052 173.346 43.8883 170.912 43.8883C168.581 43.8883 166.709 44.7139 165.296 46.3647C163.884 48.0155 163.177 50.7473 163.177 54.5595ZM196.696 35.7704L207.494 35.7704L221.586 56.4739L221.586 35.7704L232.487 35.7704L232.487 73.195L221.586 73.195L207.571 52.6447L207.571 73.195L196.696 73.195L196.696 35.7704ZM240.222 35.7704L251.786 35.7704L251.786 49.9129L263.912 35.7704L279.28 35.7704L265.648 49.8877L279.893 73.195L265.648 73.195L257.76 57.8014L251.786 64.0557L251.786 73.195L240.222 73.195L240.222 35.7704ZM284.182 35.7704L295.772 35.7704L295.772 73.195L284.182 73.195L284.182 35.7704ZM304.171 35.7704L314.969 35.7704L329.061 56.4739L329.061 35.7704L339.961 35.7704L339.961 73.195L329.061 73.195L315.046 52.6447L315.046 73.195L304.171 73.195L304.171 35.7704ZM345.629 60.8138L356.631 60.1245C356.87 61.9117 357.355 63.2732 358.087 64.2091C359.278 65.7239 360.98 66.4811 363.192 66.4811C364.843 66.4811 366.111 66.0982 366.996 65.3322C367.898 64.5493 368.349 63.6475 368.349 62.6262C368.349 61.6564 367.924 60.7881 367.073 60.0226C366.222 59.2566 364.247 58.5334 361.15 57.8524C356.078 56.7122 352.462 55.1973 350.301 53.3082C348.122 51.4195 347.033 49.0111 347.033 46.0837C347.033 44.1606 347.586 42.3482 348.692 40.6464C349.815 38.9275 351.492 37.5829 353.721 36.6129C355.967 35.6257 359.039 35.1322 362.937 35.1322C367.719 35.1322 371.361 36.0257 373.863 37.8127C376.382 39.5827 377.879 42.4078 378.356 46.288L367.456 46.9263C367.166 45.2415 366.553 44.0159 365.617 43.2502C364.699 42.4844 363.422 42.1015 361.788 42.1015C360.444 42.1015 359.431 42.3908 358.75 42.9694C358.07 43.5311 357.729 44.2203 357.729 45.0372C357.729 45.6328 358.01 46.1691 358.572 46.6453C359.116 47.1389 360.41 47.5986 362.452 48.0242C367.507 49.1135 371.123 50.2197 373.302 51.3428C375.497 52.4491 377.088 53.8276 378.075 55.4784C379.079 57.1292 379.582 58.9756 379.582 61.0181C379.582 63.4178 378.918 65.6302 377.59 67.6553C376.263 69.6808 374.408 71.221 372.025 72.2762C369.642 73.314 366.639 73.8333 363.013 73.8333C356.648 73.8333 352.241 72.6077 349.79 70.157C347.339 67.7063 345.952 64.592 345.629 60.8138Z" fill="rgb(255,255,255)" fill-rule="nonzero" />
</svg>
