<svg viewBox="0 0 904 185" xmlns="http://www.w3.org/2000/svg" xmlns:xlink="http://www.w3.org/1999/xlink" width="904.000000" height="185.000000" fill="none">
	<mask id="mask_1" width="903.835876" height="184.962250" x="0.000000" y="0.000000" maskUnits="userSpaceOnUse">
		<g filter="url(#pixso_custom_mask_type_alpha)">
			<g id="Group">
				<path id="Vector" d="M129.657 79.3628L178.069 79.3628L178.369 79.3628C179.371 79.3628 180.173 79.4133 180.775 79.5137C189.595 79.9158 196.962 83.4359 202.875 90.0736C208.289 96.1077 210.994 103.198 210.994 111.344C210.994 119.892 208.038 127.284 202.123 133.52C195.91 140.057 188.293 143.376 179.272 143.476C179.172 143.476 179.071 143.476 178.971 143.476C178.871 143.476 178.821 143.476 178.821 143.476L140.933 143.476L140.933 173.496L140.933 173.647C140.933 176.664 139.931 179.228 137.926 181.34C135.722 183.754 132.965 184.961 129.657 184.961C126.551 184.961 123.844 183.854 121.539 181.642C119.434 179.43 118.381 176.764 118.381 173.647L118.381 173.345L118.381 115.568C119.684 117.177 121.288 118.384 123.193 119.188C125.197 120.194 127.352 120.697 129.657 120.697L134.919 120.848L140.933 120.848L178.52 120.848C179.021 120.848 179.371 120.848 179.572 120.848C181.476 120.747 183.18 120.144 184.685 119.038C187.189 117.127 188.442 114.562 188.442 111.344C188.442 108.528 187.34 106.164 185.135 104.254C183.532 102.846 181.627 102.091 179.422 101.991C179.221 101.991 178.971 101.991 178.67 101.991L140.933 101.991L140.933 106.366C140.933 109.584 139.68 112.3 137.175 114.512C135.07 116.423 132.564 117.378 129.657 117.378C126.25 117.378 123.443 116.121 121.238 113.607C119.434 111.696 118.482 109.383 118.381 106.667L118.381 90.6768C118.381 87.8611 119.284 85.4476 121.088 83.4359C123.292 80.7205 126.099 79.3628 129.507 79.3628L129.657 79.3628Z" fill="url(#paint_linear_32)" fill-rule="nonzero" />
				<path id="Vector" d="M478.609 79.3628C481.917 79.3628 484.673 80.6202 486.879 83.1342C488.783 85.2462 489.736 87.7601 489.736 90.6768L489.736 111.796L521.307 87.6599C521.108 88.7663 521.007 89.8223 521.007 90.8278C521.007 94.75 522.36 98.1691 525.067 101.086C527.773 103.902 531.081 105.461 534.99 105.762L500.261 132.011L551.978 162.634C554.585 164.243 556.239 165.4 556.94 166.104C558.845 168.316 559.796 170.831 559.796 173.647C559.796 176.965 558.544 179.781 556.038 182.095C553.933 184.005 551.427 184.961 548.521 184.961C546.617 184.961 544.861 184.508 543.259 183.603C542.959 183.503 542.658 183.352 542.356 183.151C542.055 182.949 541.655 182.749 541.154 182.547C540.754 182.245 540.453 181.994 540.252 181.793L496.953 155.997C490.839 152.376 486.228 150.113 483.121 149.208C481.616 148.705 480.064 148.454 478.46 148.454C476.153 148.454 474 148.957 471.996 149.963C470.191 150.868 468.587 152.075 467.183 153.583L467.183 90.6768L467.183 90.5261C467.183 87.8106 468.085 85.3969 469.89 83.285C472.095 80.67 474.901 79.3628 478.309 79.3628L478.609 79.3628ZM535.742 79.5137C539.249 79.5137 542.107 80.8208 544.31 83.4359C546.115 85.5479 547.017 88.0121 547.017 90.8278C547.017 93.04 546.466 95.0517 545.363 96.8619C544.161 98.7724 542.607 100.181 540.702 101.086C539.1 101.891 537.446 102.293 535.742 102.293C531.732 102.293 528.625 100.633 526.42 97.3145C525.117 95.404 524.466 93.2415 524.466 90.8278C524.466 89.3193 524.716 87.9111 525.218 86.6039C525.518 85.7991 525.919 85.0954 526.42 84.4919C527.622 82.6817 529.427 81.2735 531.832 80.268C533.036 79.7648 534.337 79.5137 535.742 79.5137ZM478.46 151.924C481.266 151.924 483.722 152.778 485.826 154.488C488.433 156.701 489.736 159.517 489.736 162.936L489.736 173.496L489.736 173.647C489.736 176.664 488.733 179.228 486.729 181.34C484.524 183.754 481.768 184.961 478.46 184.961C475.353 184.961 472.647 183.854 470.342 181.642C468.236 179.43 467.183 176.764 467.183 173.647L467.183 173.345L467.183 162.634C467.283 159.014 468.837 156.148 471.844 154.036C473.849 152.627 476.054 151.924 478.46 151.924Z" fill="url(#paint_linear_33)" fill-rule="nonzero" />
				<path id="Vector" d="M575.737 79.3628L617.082 79.3628C619.99 79.3628 622.444 80.3683 624.45 82.38C626.052 83.8884 627.154 85.6987 627.757 87.8106C627.956 88.8161 628.058 89.9731 628.058 91.2803L628.058 173.496L628.058 173.647C628.058 176.664 627.055 179.228 625.051 181.34C622.846 183.754 620.089 184.961 616.781 184.961C613.675 184.961 610.968 183.854 608.663 181.642C606.558 179.43 605.505 176.764 605.505 173.647L605.505 173.345L605.505 101.991L575.586 101.991L575.437 101.991C572.43 101.991 569.874 100.986 567.768 98.9739C565.362 96.7617 564.16 93.9957 564.16 90.6768C564.16 87.5596 565.263 84.8442 567.468 82.5307C569.673 80.4188 572.33 79.3628 575.437 79.3628L575.737 79.3628ZM626.253 79.3628L658.126 79.3628L658.277 79.3628C660.982 79.3628 663.388 80.268 665.494 82.0782C668.099 84.2905 669.403 87.1069 669.403 90.5261L669.403 90.8278C669.403 94.1465 668.149 96.9125 665.643 99.1247C663.539 101.035 661.034 101.991 658.126 101.991L631.515 101.991L631.515 90.6768C631.515 88.0619 630.864 85.5984 629.561 83.285C628.659 81.7765 627.556 80.4693 626.253 79.3628Z" fill="url(#paint_linear_34)" fill-rule="nonzero" />
				<path id="Vector" d="M363.447 79.3628C365.854 79.3628 368.057 80.0665 370.063 81.4747C372.969 83.5867 374.523 86.4529 374.724 90.0736L374.724 91.1295L374.724 92.1855L374.724 132.162C374.724 139.303 376.527 145.638 380.135 151.169C384.446 158.009 390.009 161.729 396.823 162.333C395.321 164.043 394.268 166.004 393.667 168.216C393.267 169.523 393.066 170.831 393.066 172.138C393.066 173.043 393.165 173.948 393.366 174.854C393.567 176.161 393.967 177.418 394.568 178.625C395.872 181.34 397.777 183.452 400.282 184.961L398.477 184.961C390.96 184.961 383.945 183.05 377.429 179.228C371.014 175.406 365.653 170.228 361.342 163.69C355.228 154.337 352.171 143.828 352.171 132.162L352.171 91.2803L352.171 89.9226C352.372 87.1069 353.474 84.6932 355.479 82.6817C357.684 80.4693 360.341 79.3628 363.447 79.3628ZM433.509 79.3628C436.715 79.3628 439.422 80.5192 441.627 82.8325C443.733 85.0447 444.784 87.6094 444.784 90.5261L444.784 91.4313L444.784 92.4872L444.784 122.357C444.736 122.299 444.684 122.241 444.634 122.184C444.334 121.843 444.018 121.514 443.688 121.202C440.996 118.645 437.359 117.076 433.358 117.076C428.949 117.076 424.983 118.981 422.232 122.015C422.183 122.071 422.131 122.127 422.083 122.184L422.083 90.6768C422.083 86.4326 424.412 82.7344 427.858 80.7982C428.922 80.179 430.085 79.7604 431.35 79.5417C432.001 79.424 432.672 79.3628 433.358 79.3628C433.382 79.3628 433.406 79.3628 433.43 79.3628C433.455 79.3628 433.483 79.3628 433.509 79.3628ZM433.358 147.247C437.432 147.247 441.129 145.621 443.836 142.98C444.112 142.71 444.38 142.43 444.634 142.14L444.634 173.647C444.634 179.895 439.586 184.961 433.358 184.961C428.363 184.961 424.128 181.702 422.645 177.189C418.748 179.933 414.549 181.971 410.054 183.301L409.754 183.452C409.153 183.553 408.552 183.603 407.951 183.603C405.244 183.603 402.888 182.749 400.883 181.039C398.678 179.329 397.325 177.066 396.823 174.25C396.624 173.546 396.523 172.842 396.523 172.138C396.523 170.63 396.823 169.172 397.426 167.763C398.728 164.746 400.883 162.685 403.891 161.578C407.298 160.573 410.406 158.662 413.213 155.846C417.26 151.784 419.946 146.879 421.268 141.132C421.526 141.479 421.797 141.816 422.083 142.14C422.177 142.248 422.273 142.354 422.372 142.46C425.116 145.405 429.023 147.247 433.358 147.247ZM433.358 143.476C427.694 143.476 423.003 139.284 422.203 133.823C422.124 133.28 422.083 132.726 422.083 132.162C422.083 131.531 422.133 130.913 422.232 130.31C423.114 124.942 427.76 120.848 433.358 120.848C439.586 120.848 444.634 125.913 444.634 132.162C444.634 138.41 439.586 143.476 433.358 143.476Z" fill="url(#paint_linear_35)" fill-rule="evenodd" />
				<path id="Vector" d="M694.965 79.3628C697.371 79.3628 699.572 80.0665 701.58 81.4747C704.489 83.5867 706.036 86.4529 706.241 90.0736L706.241 91.1295L706.241 92.1855L706.241 132.162C706.241 139.303 708.044 145.638 711.652 151.169C715.96 158.009 721.522 161.729 728.34 162.333C726.838 164.043 725.785 166.004 725.184 168.216C724.786 169.523 724.583 170.831 724.583 172.138C724.583 173.043 724.681 173.948 724.883 174.854C725.086 176.161 725.484 177.418 726.086 178.625C727.387 181.34 729.296 183.452 731.799 184.961L729.994 184.961C722.477 184.961 715.464 183.05 708.946 179.228C702.535 175.406 697.166 170.228 692.859 163.69C686.745 154.337 683.688 143.828 683.688 132.162L683.688 91.2803L683.688 89.9226C683.889 87.1069 684.992 84.6932 686.996 82.6817C689.201 80.4693 691.858 79.3628 694.965 79.3628ZM765.026 79.3628C768.236 79.3628 770.941 80.5192 773.144 82.8325C775.25 85.0447 776.301 87.6094 776.301 90.5261L776.301 91.4313L776.301 92.4872L776.301 122.357C776.249 122.299 776.203 122.241 776.151 122.184C775.851 121.843 775.535 121.514 775.204 121.202C772.513 118.645 768.874 117.076 764.875 117.076C760.463 117.076 756.5 118.981 753.749 122.015C753.696 122.071 753.652 122.127 753.598 122.184L753.598 90.6768C753.598 86.4326 755.929 82.7344 759.373 80.7982C760.44 80.179 761.606 79.7604 762.869 79.5417C763.521 79.424 764.191 79.3628 764.875 79.3628C764.897 79.3628 764.921 79.3628 764.943 79.3628C764.972 79.3628 764.995 79.3628 765.026 79.3628ZM764.875 147.247C768.949 147.247 772.648 145.621 775.355 142.98C775.631 142.71 775.895 142.43 776.151 142.14L776.151 173.647C776.151 179.895 771.099 184.961 764.875 184.961C759.884 184.961 755.643 181.702 754.162 177.189C750.261 179.933 746.066 181.971 741.571 183.301L741.271 183.452C740.67 183.553 740.069 183.603 739.466 183.603C736.761 183.603 734.408 182.749 732.4 181.039C730.197 179.329 728.844 177.066 728.34 174.25C728.138 173.546 728.04 172.842 728.04 172.138C728.04 170.63 728.34 169.172 728.942 167.763C730.243 164.746 732.4 162.685 735.408 161.578C738.813 160.573 741.925 158.662 744.728 155.846C748.78 151.784 751.465 146.879 752.787 141.132C753.043 141.479 753.314 141.816 753.598 142.14C753.696 142.248 753.786 142.354 753.884 142.46C756.629 145.405 760.538 147.247 764.875 147.247ZM764.875 143.476C759.207 143.476 754.524 139.284 753.72 133.823C753.637 133.28 753.598 132.726 753.598 132.162C753.598 131.531 753.652 130.913 753.749 130.31C754.629 124.942 759.275 120.848 764.875 120.848C771.099 120.848 776.151 125.913 776.151 132.162C776.151 138.41 771.099 143.476 764.875 143.476Z" fill="url(#paint_linear_36)" fill-rule="evenodd" />
				<path id="Vector" d="M14.648 79.3628C8.42046 79.3628 3.37209 84.4285 3.37209 90.6768L3.37209 95.7841C6.12694 92.6523 10.1576 90.6768 14.648 90.6768C19.1385 90.6768 23.1688 92.6523 25.9239 95.7841L25.9239 90.6768C25.9239 84.4285 20.8753 79.3628 14.648 79.3628ZM25.9239 115.741L25.9239 173.647C25.9239 179.895 20.8753 184.961 14.648 184.961C8.42046 184.961 3.37209 179.895 3.37209 173.647L3.37209 115.741C6.12694 118.872 10.1576 120.848 14.648 120.848C19.1385 120.848 23.1688 118.872 25.9239 115.741ZM25.9239 105.762C25.9239 99.5139 20.8753 94.4482 14.648 94.4482C8.42046 94.4482 3.37209 99.5139 3.37209 105.762C3.37209 112.011 8.42046 117.076 14.648 117.076C20.8753 117.076 25.9239 112.011 25.9239 105.762Z" fill="url(#paint_linear_37)" fill-rule="evenodd" />
				<path id="Vector" d="M14.4977 79.3628L14.7984 79.3628L84.5588 79.3628L84.709 79.3628C87.4153 79.3628 89.8209 80.268 91.9257 82.0782C94.5319 84.2905 95.885 87.1069 95.985 90.5261L95.985 90.8278C95.885 94.1465 94.5815 96.9125 92.076 99.1247C89.9711 101.035 87.5152 101.991 84.709 101.991L25.9239 101.991L25.9239 106.517C25.9239 109.433 24.8715 111.947 22.7667 114.059C20.5619 116.272 17.8554 117.378 14.648 117.378C12.042 117.378 9.68659 116.573 7.58176 114.964C4.87554 112.852 3.47228 110.087 3.37209 106.667L3.37209 90.6768L3.37209 90.5261C3.37209 87.8106 4.27415 85.4476 6.0783 83.4359C8.28336 80.7205 11.0898 79.3628 14.4977 79.3628Z" fill="url(#paint_linear_38)" fill-rule="nonzero" />
				<path id="Vector" d="M878.381 90.6768C878.381 84.4285 873.329 79.3628 867.104 79.3628L836.284 79.3628C835.502 79.3628 834.742 79.442 834.014 79.5929C828.872 80.6474 825.007 85.2092 825.007 90.6768C825.007 91.0676 825.031 91.4531 825.068 91.834C825.647 97.5392 830.443 101.991 836.284 101.991L836.291 101.991L846.229 101.991L867.104 101.991C873.329 101.991 878.381 96.9252 878.381 90.6768ZM798.706 173.989C798.699 173.875 798.699 173.761 798.699 173.647L798.699 90.6905L798.699 90.6768C798.699 86.3353 801.132 82.5648 804.711 80.6678C805.959 80.0055 807.35 79.5711 808.823 79.4209C809.199 79.3824 809.582 79.3628 809.973 79.3628L826.339 79.3628C823.219 82.1243 821.257 86.1627 821.25 90.6626L821.25 90.6768L821.25 90.6989C821.257 95.1958 823.226 99.231 826.339 101.991L821.25 101.991L821.25 162.333L835.36 162.333C832.241 165.097 830.269 169.141 830.269 173.647C830.269 178.153 832.241 182.197 835.36 184.961L809.973 184.961C803.861 184.961 798.885 180.079 798.706 173.989ZM842.674 184.652C843.515 184.854 844.402 184.961 845.305 184.961L868.609 184.961C868.736 184.961 868.863 184.959 868.992 184.954C869.21 184.959 869.42 184.961 869.638 184.961C887.07 184.961 901.21 170.778 901.21 153.281L901.21 152.527C901.21 135.031 887.07 120.848 869.638 120.848C869.42 120.848 869.21 120.85 868.992 120.855C868.863 120.85 868.736 120.848 868.609 120.848L852.244 120.848C855.363 123.612 857.332 127.656 857.332 132.162C857.332 136.667 855.363 140.712 852.244 143.476L868.609 143.476C868.954 143.476 869.3 143.46 869.638 143.429L869.638 143.476C874.621 143.476 878.659 147.529 878.659 152.527L878.659 153.281C878.659 158.28 874.621 162.333 869.638 162.333L869.638 162.38C869.3 162.349 868.954 162.333 868.609 162.333L845.305 162.333C839.938 162.333 835.443 166.1 834.307 171.145C834.195 171.637 834.119 172.142 834.073 172.656C834.044 172.983 834.029 173.313 834.029 173.647C834.029 175.649 834.547 177.53 835.458 179.162C836.975 181.881 839.577 183.908 842.674 184.652ZM842.298 143.476C848.523 143.476 853.575 138.41 853.575 132.162C853.575 125.913 848.523 120.848 842.298 120.848C836.074 120.848 831.022 125.913 831.022 132.162C831.022 138.41 836.074 143.476 842.298 143.476Z" fill="url(#paint_linear_39)" fill-rule="evenodd" />
				<path id="Vector" d="M284.702 79.3628C289.424 79.3628 293.482 82.6334 294.371 87.1567L294.765 89.1684C296.318 97.074 304.703 101.796 312.5 99.1541L314.484 98.4822C318.946 96.9705 323.878 98.7619 326.24 102.75L329.806 108.774C332.168 112.763 331.292 117.825 327.719 120.836L326.13 122.176C319.885 127.441 319.885 136.883 326.13 142.148L327.719 143.487C331.292 146.499 332.168 151.561 329.806 155.549L326.24 161.573C323.878 165.562 318.946 167.353 314.484 165.842L312.5 165.169C304.703 162.527 296.318 167.249 294.765 175.155L294.371 177.167C293.482 181.69 289.424 184.961 284.702 184.961L277.568 184.961C272.846 184.961 268.788 181.69 267.901 177.167L267.505 175.154C265.953 167.249 257.567 162.527 249.77 165.169L247.786 165.842C243.326 167.353 238.392 165.562 236.03 161.573L232.464 155.549C230.104 151.561 230.98 146.499 234.551 143.487L236.141 142.148C242.386 136.883 242.386 127.441 236.141 122.176L234.551 120.836C230.98 117.825 230.104 112.763 232.464 108.774L236.03 102.75C238.392 98.7619 243.326 96.9705 247.786 98.4822L249.77 99.1541C257.567 101.796 265.953 97.0747 267.505 89.1684L267.9 87.1567C268.788 82.6334 272.846 79.3628 277.568 79.3628L284.702 79.3628ZM281.136 154.79C293.58 154.79 303.65 144.649 303.65 132.162C303.65 119.675 293.58 109.534 281.136 109.534C268.691 109.534 258.622 119.675 258.622 132.162C258.622 144.649 268.691 154.79 281.136 154.79Z" fill="url(#paint_linear_40)" fill-rule="evenodd" />
				<path id="Vector" d="M84.5586 79.3628C78.3312 79.3628 73.2826 84.4285 73.2826 90.6768L73.2826 163.669C76.0378 160.537 80.0684 158.561 84.5586 158.561C89.0487 158.561 93.0794 160.537 95.8345 163.669L95.8345 90.6768C95.8345 84.4285 90.7859 79.3628 84.5586 79.3628ZM95.8345 173.647C95.8345 167.398 90.7859 162.333 84.5586 162.333C78.3312 162.333 73.2826 167.398 73.2826 173.647C73.2826 179.895 78.3312 184.961 84.5586 184.961C90.7859 184.961 95.8345 179.895 95.8345 173.647Z" fill="url(#paint_linear_41)" fill-rule="evenodd" />
				<path id="Vector" d="M84.5586 184.962C90.7861 184.962 95.8345 179.897 95.8345 173.648C95.8345 167.399 90.7861 162.334 84.5586 162.334C78.331 162.334 73.2826 167.399 73.2826 173.648C73.2826 179.897 78.331 184.962 84.5586 184.962Z" fill="url(#paint_linear_42)" fill-rule="nonzero" />
				<path id="Vector" d="M297.673 131.785C297.673 122.621 290.268 115.191 281.134 115.191C272 115.191 264.597 122.621 264.597 131.785C264.597 140.95 272 148.379 281.134 148.379C290.268 148.379 297.673 140.95 297.673 131.785Z" fill-rule="nonzero" stroke="rgb(255,255,255)" stroke-width="5.000000" />
				<path id="Vector" d="M903.836 18.5625C903.836 23.6894 902.033 28.0641 898.417 31.6885C894.809 35.3128 890.448 37.1245 885.337 37.1245C880.225 37.1245 875.864 35.3128 872.256 31.6885C868.64 28.0641 866.837 23.6894 866.837 18.5625C866.837 13.4358 868.64 9.0603 872.256 5.43604C875.864 1.81252 880.225 0 885.337 0C890.448 0 894.809 1.81252 898.417 5.43604C902.033 9.0603 903.836 13.4358 903.836 18.5625ZM885.337 5.30328C881.683 5.30328 878.563 6.5961 875.986 9.18175C873.414 11.7674 872.121 14.8938 872.121 18.5625C872.121 22.2307 873.414 25.357 875.986 27.9428C878.563 30.5283 881.683 31.8211 885.337 31.8211C888.99 31.8211 892.11 30.5283 894.687 27.9428C897.259 25.357 898.552 22.2307 898.552 18.5625C898.552 14.8938 897.259 11.7674 894.687 9.18175C892.11 6.5961 888.99 5.30328 885.337 5.30328Z" fill="url(#paint_linear_43)" fill-rule="nonzero" />
				<path id="Vector" d="M848.337 15.9106C849.788 15.9106 851.034 15.3916 852.072 14.353C853.103 13.3144 853.621 12.0653 853.621 10.6073C853.621 9.14855 853.103 7.90022 852.072 6.8616C851.034 5.82297 849.788 5.30328 848.337 5.30328L837.766 5.30328L837.766 15.9106L848.337 15.9106ZM850.982 31.8211C852.433 31.8211 853.68 31.3014 854.711 30.2629C855.749 29.2243 856.267 27.9759 856.267 26.5179C856.267 25.0592 855.749 23.8108 854.711 22.7722C853.68 21.7336 852.433 21.214 850.982 21.214L837.766 21.214L837.766 31.8211L850.982 31.8211ZM835.12 0L848.337 0C851.268 0 853.755 1.03862 855.8 3.11588C857.874 5.17127 858.905 7.66792 858.905 10.6073C858.905 13.2148 858.094 15.4799 856.462 17.4025C857.168 17.8438 857.838 18.3748 858.477 18.9934C860.529 21.0706 861.551 23.5784 861.551 26.5179C861.551 29.4566 860.515 31.9645 858.446 34.0419C856.394 36.0972 853.907 37.1245 850.982 37.1245L835.12 37.1245C834.4 37.1245 833.767 36.8703 833.242 36.3619C832.729 35.8317 832.482 35.2018 832.482 34.4725L832.482 2.65201C832.482 1.92263 832.729 1.30413 833.242 0.795752C833.767 0.265497 834.4 0 835.12 0Z" fill="url(#paint_linear_44)" fill-rule="nonzero" />
				<path id="Vector" d="M779.621 34.4725C779.621 35.2018 779.359 35.8317 778.832 36.3619C778.329 36.8703 777.713 37.1245 776.983 37.1245C776.254 37.1245 775.629 36.8703 775.097 36.3619C774.593 35.8317 774.337 35.2018 774.337 34.4725L774.337 2.65201C774.337 1.92263 774.593 1.30413 775.097 0.795752C775.629 0.265497 776.254 0 776.983 0C777.713 0 778.329 0.265497 778.832 0.795752C779.359 1.30413 779.621 1.92263 779.621 2.65201L779.621 3.3482C782.245 1.11632 785.328 0 788.875 0C792.882 0 796.309 1.42558 799.152 4.27596C799.746 4.8726 800.286 5.5024 800.767 6.1654C801.249 5.5024 801.791 4.8726 802.384 4.27596C805.226 1.42558 808.653 0 812.66 0C816.666 0 820.094 1.42558 822.937 4.27596C825.778 7.12637 827.198 10.5628 827.198 14.5846L827.198 34.4725C827.198 35.2018 826.929 35.8317 826.401 36.3619C825.898 36.8703 825.282 37.1245 824.552 37.1245C823.824 37.1245 823.199 36.8703 822.673 36.3619C822.162 35.8317 821.914 35.2018 821.914 34.4725L821.914 14.5846C821.914 12.0216 821.005 9.83342 819.199 8.02166C817.396 6.2099 815.215 5.30328 812.66 5.30328C810.104 5.30328 807.925 6.2099 806.12 8.02166C804.317 9.83342 803.413 12.0216 803.413 14.5846L803.413 34.4725C803.413 35.2018 803.144 35.8317 802.617 36.3619C802.113 36.8703 801.497 37.1245 800.767 37.1245C800.039 37.1245 799.414 36.8703 798.889 36.3619C798.378 35.8317 798.122 35.2018 798.122 34.4725L798.122 14.5846C798.122 12.0216 797.22 9.83342 795.415 8.02166C793.612 6.2099 791.431 5.30328 788.875 5.30328C786.32 5.30328 784.14 6.2099 782.335 8.02166C780.532 9.83342 779.621 12.0216 779.621 14.5846L779.621 34.4725Z" fill="url(#paint_linear_45)" fill-rule="nonzero" />
				<path id="Vector" d="M766.082 28.0423C766.803 28.0423 767.421 28.3078 767.932 28.838C768.457 29.3464 768.721 29.965 768.721 30.6943C768.721 31.423 768.45 32.0753 767.893 32.6494C764.48 35.6325 760.466 37.1245 755.837 37.1245C750.731 37.1245 746.372 35.3128 742.755 31.6885C739.147 28.0641 737.344 23.6894 737.344 18.5625C737.344 13.4358 739.147 9.0603 742.755 5.43604C746.372 1.81252 750.731 0 755.837 0C760.466 0 764.48 1.49194 767.893 4.47508C768.511 5.02721 768.818 5.71208 768.818 6.52971C768.818 7.25909 768.555 7.88892 768.029 8.41917C767.526 8.92755 766.908 9.18175 766.18 9.18175C765.54 9.18175 764.976 8.9826 764.497 8.58511C762.03 6.39773 759.144 5.30328 755.837 5.30328C752.182 5.30328 749.07 6.5961 746.492 9.18175C743.913 11.7674 742.628 14.8938 742.628 18.5625C742.628 22.2307 743.913 25.357 746.492 27.9428C749.07 30.5283 752.182 31.8211 755.837 31.8211C759.144 31.8211 762.015 30.7381 764.458 28.5725C764.924 28.2188 765.465 28.0423 766.082 28.0423Z" fill="url(#paint_linear_46)" fill-rule="nonzero" />
				<path id="Vector" d="M706.951 21.214L706.951 34.4725C706.951 35.2018 706.682 35.8317 706.154 36.3619C705.651 36.8703 705.035 37.1245 704.305 37.1245C703.577 37.1245 702.952 36.8703 702.419 36.3619C701.916 35.8317 701.659 35.2018 701.659 34.4725L701.659 2.65201C701.659 1.92263 701.916 1.30413 702.419 0.795752C702.952 0.265497 703.577 0 704.305 0C705.035 0 705.651 0.265497 706.154 0.795752C706.682 1.30413 706.951 1.92263 706.951 2.65201L706.951 15.9106L726.768 15.9106L726.768 2.65201C726.768 1.92263 727.022 1.30413 727.526 0.795752C728.06 0.265497 728.683 0 729.414 0C730.134 0 730.759 0.265497 731.263 0.795752C731.788 1.30413 732.052 1.92263 732.052 2.65201L732.052 34.4725C732.052 35.2018 731.788 35.8317 731.263 36.3619C730.759 36.8703 730.134 37.1245 729.414 37.1245C728.683 37.1245 728.06 36.8703 727.526 36.3619C727.022 35.8317 726.768 35.2018 726.768 34.4725L726.768 21.214L706.951 21.214Z" fill="url(#paint_linear_47)" fill-rule="nonzero" />
				<path id="Vector" d="M677.878 5.30328C674.222 5.30328 671.106 6.5961 668.53 9.18175C665.953 11.7674 664.664 14.8938 664.664 18.5625C664.664 22.2307 665.953 25.357 668.53 27.9428C671.106 30.5283 674.222 31.8211 677.878 31.8211C681.535 31.8211 684.651 30.5283 687.228 27.9428C689.806 25.357 691.093 22.2307 691.093 18.5625C691.093 14.8938 689.806 11.7674 687.228 9.18175C684.651 6.5961 681.535 5.30328 677.878 5.30328ZM691.093 31.5556C687.394 35.2682 682.987 37.1245 677.878 37.1245C672.769 37.1245 668.409 35.3128 664.797 31.6885C661.185 28.0641 659.38 23.6894 659.38 18.5625C659.38 13.4358 661.185 9.0603 664.797 5.43604C668.409 1.81252 672.769 0 677.878 0C682.987 0 687.35 1.81252 690.962 5.43604C694.572 9.0603 696.377 13.4358 696.377 18.5625L696.377 34.4725C696.377 35.2018 696.113 35.8317 695.586 36.3619C695.079 36.8703 694.463 37.1245 693.735 37.1245C693.008 37.1245 692.381 36.8703 691.852 36.3619C691.345 35.8317 691.093 35.2018 691.093 34.4725L691.093 31.5556Z" fill="url(#paint_linear_48)" fill-rule="nonzero" />
				<path id="Vector" d="M622.383 18.5625C622.383 22.2307 623.67 25.357 626.247 27.9428C628.825 30.5283 631.941 31.8211 635.595 31.8211C639.251 31.8211 642.367 30.5283 644.945 27.9428C647.523 25.357 648.811 22.2307 648.811 18.5625C648.811 14.8938 647.523 11.7674 644.945 9.18175C642.367 6.5961 639.251 5.30328 635.595 5.30328C631.941 5.30328 628.825 6.5961 626.247 9.18175C623.67 11.7674 622.383 14.8938 622.383 18.5625ZM622.383 50.3831C622.383 51.1124 622.117 51.731 621.59 52.2394C621.083 52.7696 620.465 53.0351 619.739 53.0351C619.012 53.0351 618.385 52.7696 617.856 52.2394C617.349 51.731 617.097 51.1124 617.097 50.3831L617.097 18.5625C617.097 13.4358 618.902 9.0603 622.514 5.43604C626.126 1.81252 630.488 0 635.595 0C640.706 0 645.067 1.81252 648.679 5.43604C652.289 9.0603 654.096 13.4358 654.096 18.5625C654.096 23.6894 652.289 28.0641 648.679 31.6885C645.067 35.3128 640.706 37.1245 635.595 37.1245C630.488 37.1245 626.126 35.3128 622.514 31.6885C622.469 31.6439 622.427 31.6002 622.383 31.5556L622.383 50.3831Z" fill="url(#paint_linear_49)" fill-rule="nonzero" />
				<path id="Vector" d="M564.236 34.4725C564.236 35.2018 563.972 35.8317 563.443 36.3619C562.936 36.8703 562.32 37.1245 561.594 37.1245C560.867 37.1245 560.238 36.8703 559.709 36.3619C559.204 35.8317 558.95 35.2018 558.95 34.4725L558.95 2.65201C558.95 1.92263 559.204 1.30413 559.709 0.795752C560.238 0.265497 560.867 0 561.594 0C562.32 0 562.936 0.265497 563.443 0.795752C563.972 1.30413 564.236 1.92263 564.236 2.65201L564.236 3.3482C566.858 1.11632 569.94 0 573.486 0C577.494 0 580.918 1.42558 583.759 4.27596C584.353 4.8726 584.893 5.5024 585.378 6.1654C585.863 5.5024 586.403 4.8726 586.997 4.27596C589.838 1.42558 593.262 0 597.271 0C601.279 0 604.705 1.42558 607.544 4.27596C610.385 7.12637 611.807 10.5628 611.807 14.5846L611.807 34.4725C611.807 35.2018 611.541 35.8317 611.014 36.3619C610.507 36.8703 609.889 37.1245 609.163 37.1245C608.436 37.1245 607.81 36.8703 607.28 36.3619C606.773 35.8317 606.521 35.2018 606.521 34.4725L606.521 14.5846C606.521 12.0216 605.617 9.83342 603.812 8.02166C602.005 6.2099 599.826 5.30328 597.271 5.30328C594.715 5.30328 592.536 6.2099 590.731 8.02166C588.924 9.83342 588.02 12.0216 588.02 14.5846L588.02 34.4725C588.02 35.2018 587.757 35.8317 587.229 36.3619C586.722 36.8703 586.105 37.1245 585.378 37.1245C584.652 37.1245 584.025 36.8703 583.496 36.3619C582.989 35.8317 582.736 35.2018 582.736 34.4725L582.736 14.5846C582.736 12.0216 581.833 9.83342 580.026 8.02166C578.221 6.2099 576.041 5.30328 573.486 5.30328C570.93 5.30328 568.751 6.2099 566.944 8.02166C565.139 9.83342 564.236 12.0216 564.236 14.5846L564.236 34.4725Z" fill="url(#paint_linear_50)" fill-rule="nonzero" />
				<path id="Vector" d="M550.699 28.0423C551.425 28.0423 552.041 28.3078 552.548 28.838C553.077 29.3464 553.341 29.965 553.341 30.6943C553.341 31.423 553.066 32.0753 552.515 32.6494C549.102 35.6325 545.083 37.1245 540.457 37.1245C535.348 37.1245 530.987 35.3128 527.375 31.6885C523.763 28.0641 521.958 23.6894 521.958 18.5625C521.958 13.4358 523.763 9.0603 527.375 5.43604C530.987 1.81252 535.348 0 540.457 0C545.083 0 549.102 1.49194 552.515 4.47508C553.131 5.02721 553.44 5.71208 553.44 6.52971C553.44 7.25909 553.175 7.88892 552.648 8.41917C552.141 8.92755 551.525 9.18175 550.797 9.18175C550.159 9.18175 549.596 8.9826 549.113 8.58511C546.646 6.39773 543.761 5.30328 540.457 5.30328C536.802 5.30328 533.685 6.5961 531.109 9.18175C528.531 11.7674 527.244 14.8938 527.244 18.5625C527.244 22.2307 528.531 25.357 531.109 27.9428C533.685 30.5283 536.802 31.8211 540.457 31.8211C543.761 31.8211 546.635 30.7381 549.08 28.5725C549.543 28.2188 550.081 28.0423 550.699 28.0423Z" fill="url(#paint_linear_51)" fill-rule="nonzero" />
				<path id="Vector" d="M516.665 18.5625C516.665 23.6894 514.86 28.0641 511.248 31.6885C507.636 35.3128 503.275 37.1245 498.166 37.1245C493.057 37.1245 488.697 35.3128 485.085 31.6885C481.473 28.0641 479.666 23.6894 479.666 18.5625C479.666 13.4358 481.473 9.0603 485.085 5.43604C488.697 1.81252 493.057 0 498.166 0C503.275 0 507.636 1.81252 511.248 5.43604C514.86 9.0603 516.665 13.4358 516.665 18.5625ZM498.166 5.30328C494.51 5.30328 491.394 6.5961 488.816 9.18175C486.241 11.7674 484.952 14.8938 484.952 18.5625C484.952 22.2307 486.241 25.357 488.816 27.9428C491.394 30.5283 494.51 31.8211 498.166 31.8211C501.822 31.8211 504.938 30.5283 507.514 27.9428C510.092 25.357 511.38 22.2307 511.38 18.5625C511.38 14.8938 510.092 11.7674 507.514 9.18175C504.938 6.5961 501.822 5.30328 498.166 5.30328Z" fill="url(#paint_linear_52)" fill-rule="nonzero" />
				<path id="Vector" d="M442.671 18.5625C442.671 22.2307 443.959 25.357 446.535 27.9428C449.113 30.5283 452.229 31.8211 455.885 31.8211C459.541 31.8211 462.657 30.5283 465.233 27.9428C467.81 25.357 469.099 22.2307 469.099 18.5625C469.099 14.8938 467.81 11.7674 465.233 9.18175C462.657 6.5961 459.541 5.30328 455.885 5.30328C452.229 5.30328 449.113 6.5961 446.535 9.18175C443.959 11.7674 442.671 14.8938 442.671 18.5625ZM442.671 50.3831C442.671 51.1124 442.407 51.731 441.878 52.2394C441.371 52.7696 440.755 53.0351 440.028 53.0351C439.3 53.0351 438.673 52.7696 438.144 52.2394C437.637 51.731 437.384 51.1124 437.384 50.3831L437.384 18.5625C437.384 13.4358 439.191 9.0603 442.803 5.43604C446.413 1.81252 450.776 0 455.885 0C460.994 0 465.354 1.81252 468.966 5.43604C472.578 9.0603 474.383 13.4358 474.383 18.5625C474.383 23.6894 472.578 28.0641 468.966 31.6885C465.354 35.3128 460.994 37.1245 455.885 37.1245C450.776 37.1245 446.413 35.3128 442.803 31.6885C442.759 31.6439 442.715 31.6002 442.671 31.5556L442.671 50.3831Z" fill="url(#paint_linear_53)" fill-rule="nonzero" />
				<path id="Vector" d="M397.738 2.65201C397.738 1.92263 397.99 1.30413 398.497 0.795752C399.025 0.265497 399.654 0 400.38 0C401.106 0 401.724 0.265497 402.229 0.795752C402.758 1.30413 403.022 1.92263 403.022 2.65201L403.022 4.80623C406.326 1.60208 410.29 0 414.916 0C419.651 0 423.693 1.69032 427.039 5.07172C430.409 8.43049 432.093 12.4854 432.093 17.2366L432.093 34.4725C432.093 35.2018 431.829 35.8317 431.3 36.3619C430.795 36.8703 430.177 37.1245 429.451 37.1245C428.724 37.1245 428.096 36.8703 427.568 36.3619C427.061 35.8317 426.809 35.2018 426.809 34.4725L426.809 17.2366C426.809 13.9442 425.64 11.1376 423.305 8.81743C420.993 6.47467 418.196 5.30328 414.916 5.30328C411.634 5.30328 408.826 6.47467 406.492 8.81743C404.18 11.1376 403.022 13.9442 403.022 17.2366L403.022 34.4725C403.022 35.2018 402.758 35.8317 402.229 36.3619C401.724 36.8703 401.106 37.1245 400.38 37.1245C399.654 37.1245 399.025 36.8703 398.497 36.3619C397.99 35.8317 397.738 35.2018 397.738 34.4725L397.738 2.65201Z" fill="url(#paint_linear_54)" fill-rule="nonzero" />
				<path id="Vector" d="M368.439 15.9106C367.954 13.3695 366.742 11.1263 364.804 9.18175C362.227 6.5961 359.111 5.30328 355.455 5.30328C351.8 5.30328 348.683 6.5961 346.107 9.18175C344.169 11.1263 342.958 13.3695 342.473 15.9106L368.439 15.9106ZM365.63 28.1087C366.357 28.1087 366.973 28.3735 367.48 28.9044C368.009 29.412 368.273 30.0312 368.273 30.76C368.273 31.4894 368.02 32.1191 367.513 32.6494C364.1 35.6325 360.081 37.1245 355.455 37.1245C350.346 37.1245 345.985 35.3128 342.373 31.6885C338.761 28.0641 336.956 23.6894 336.956 18.5625C336.956 13.4358 338.761 9.0603 342.373 5.43604C345.985 1.81252 350.346 0 355.455 0C360.566 0 364.926 1.81252 368.538 5.43604C372.148 9.0603 373.955 13.4358 373.955 18.5625C373.955 19.2912 373.691 19.921 373.162 20.4521C372.655 20.9598 372.039 21.214 371.313 21.214L342.473 21.214C342.958 23.7551 344.169 25.9982 346.107 27.9428C348.683 30.5283 351.8 31.8211 355.455 31.8211C358.759 31.8211 361.6 30.7712 363.978 28.672C364.463 28.2965 365.013 28.1087 365.63 28.1087Z" fill="url(#paint_linear_55)" fill-rule="nonzero" />
				<path id="Vector" d="M331.67 18.5625C331.67 23.6894 329.863 28.0641 326.251 31.6885C322.639 35.3128 318.279 37.1245 313.17 37.1245C308.061 37.1245 303.7 35.3128 300.088 31.6885C296.476 28.0641 294.671 23.6894 294.671 18.5625C294.671 13.4358 296.476 9.0603 300.088 5.43604C303.7 1.81252 308.061 0 313.17 0C318.279 0 322.639 1.81252 326.251 5.43604C329.863 9.0603 331.67 13.4358 331.67 18.5625ZM313.17 5.30328C309.513 5.30328 306.398 6.5961 303.822 9.18175C301.244 11.7674 299.955 14.8938 299.955 18.5625C299.955 22.2307 301.244 25.357 303.822 27.9428C306.398 30.5283 309.513 31.8211 313.17 31.8211C316.826 31.8211 319.942 30.5283 322.519 27.9428C325.095 25.357 326.384 22.2307 326.384 18.5625C326.384 14.8938 325.095 11.7674 322.519 9.18175C319.942 6.5961 316.826 5.30328 313.17 5.30328Z" fill="url(#paint_linear_56)" fill-rule="nonzero" />
				<path id="Vector" d="M264.277 21.214L264.277 34.4725C264.277 35.2018 264.013 35.8317 263.484 36.3619C262.979 36.8703 262.361 37.1245 261.635 37.1245C260.908 37.1245 260.281 36.8703 259.752 36.3619C259.245 35.8317 258.992 35.2018 258.992 34.4725L258.992 2.65201C258.992 1.92263 259.245 1.30413 259.752 0.795752C260.281 0.265497 260.908 0 261.635 0C262.361 0 262.979 0.265497 263.484 0.795752C264.013 1.30413 264.277 1.92263 264.277 2.65201L264.277 15.9106L284.099 15.9106L284.099 2.65201C284.099 1.92263 284.352 1.30413 284.859 0.795752C285.386 0.265497 286.015 0 286.741 0C287.468 0 288.085 0.265497 288.59 0.795752C289.12 1.30413 289.385 1.92263 289.385 2.65201L289.385 34.4725C289.385 35.2018 289.12 35.8317 288.59 36.3619C288.085 36.8703 287.468 37.1245 286.741 37.1245C286.015 37.1245 285.386 36.8703 284.859 36.3619C284.352 35.8317 284.099 35.2018 284.099 34.4725L284.099 21.214L264.277 21.214Z" fill="url(#paint_linear_57)" fill-rule="nonzero" />
				<path id="Vector" d="M206.137 34.4725C206.137 35.2018 205.873 35.8317 205.344 36.3619C204.837 36.8703 204.221 37.1245 203.495 37.1245C202.767 37.1245 202.14 36.8703 201.611 36.3619C201.105 35.8317 200.851 35.2018 200.851 34.4725L200.851 2.65201C200.851 1.92263 201.105 1.30413 201.611 0.795752C202.14 0.265497 202.767 0 203.495 0C204.221 0 204.837 0.265497 205.344 0.795752C205.873 1.30413 206.137 1.92263 206.137 2.65201L206.137 3.3482C208.757 1.11632 211.842 0 215.387 0C219.396 0 222.82 1.42558 225.661 4.27596C226.254 4.8726 226.795 5.5024 227.28 6.1654C227.764 5.5024 228.303 4.8726 228.898 4.27596C231.74 1.42558 235.164 0 239.172 0C243.18 0 246.604 1.42558 249.445 4.27596C252.287 7.12637 253.708 10.5628 253.708 14.5846L253.708 34.4725C253.708 35.2018 253.443 35.8317 252.915 36.3619C252.408 36.8703 251.791 37.1245 251.064 37.1245C250.338 37.1245 249.709 36.8703 249.182 36.3619C248.675 35.8317 248.422 35.2018 248.422 34.4725L248.422 14.5846C248.422 12.0216 247.519 9.83342 245.714 8.02166C243.907 6.2099 241.727 5.30328 239.172 5.30328C236.616 5.30328 234.437 6.2099 232.632 8.02166C230.825 9.83342 229.922 12.0216 229.922 14.5846L229.922 34.4725C229.922 35.2018 229.658 35.8317 229.129 36.3619C228.622 36.8703 228.006 37.1245 227.28 37.1245C226.553 37.1245 225.924 36.8703 225.395 36.3619C224.89 35.8317 224.637 35.2018 224.637 34.4725L224.637 14.5846C224.637 12.0216 223.734 9.83342 221.927 8.02166C220.122 6.2099 217.943 5.30328 215.387 5.30328C212.832 5.30328 210.652 6.2099 208.846 8.02166C207.041 9.83342 206.137 12.0216 206.137 14.5846L206.137 34.4725Z" fill="url(#paint_linear_58)" fill-rule="nonzero" />
				<path id="Vector" d="M166.494 2.65201C166.494 1.92263 166.747 1.30413 167.254 0.795752C167.782 0.265497 168.41 0 169.137 0C169.863 0 170.48 0.265497 170.987 0.795752C171.515 1.30413 171.779 1.92263 171.779 2.65201L171.779 17.1371L191.171 0.663003C191.656 0.220999 192.239 0 192.921 0C193.649 0 194.265 0.265497 194.772 0.795752C195.299 1.30413 195.565 1.92263 195.565 2.65201C195.565 3.38139 195.31 3.99989 194.805 4.50827L178.386 18.4631L194.805 32.5829C195.31 33.1141 195.565 33.7438 195.565 34.4725C195.565 35.2018 195.299 35.8317 194.772 36.3619C194.265 36.8703 193.649 37.1245 192.921 37.1245C192.261 37.1245 191.689 36.9147 191.204 36.4946L174.29 21.9432L171.779 24.0975L171.779 34.4725C171.779 35.2018 171.515 35.8317 170.987 36.3619C170.48 36.8703 169.863 37.1245 169.137 37.1245C168.41 37.1245 167.782 36.8703 167.254 36.3619C166.747 35.8317 166.494 35.2018 166.494 34.4725L166.494 2.65201Z" fill="url(#paint_linear_59)" fill-rule="nonzero" />
				<path id="Vector" d="M155.693 15.9106C155.208 13.3695 153.998 11.1263 152.06 9.18175C149.483 6.5961 146.367 5.30328 142.71 5.30328C139.055 5.30328 135.939 6.5961 133.362 9.18175C131.424 11.1263 130.212 13.3695 129.728 15.9106L155.693 15.9106ZM152.886 28.1087C153.612 28.1087 154.229 28.3735 154.735 28.9044C155.264 29.412 155.528 30.0312 155.528 30.76C155.528 31.4894 155.275 32.1191 154.768 32.6494C151.354 35.6325 147.336 37.1245 142.71 37.1245C137.601 37.1245 133.241 35.3128 129.629 31.6885C126.017 28.0641 124.211 23.6894 124.211 18.5625C124.211 13.4358 126.017 9.0603 129.629 5.43604C133.241 1.81252 137.601 0 142.71 0C147.82 0 152.18 1.81252 155.793 5.43604C159.404 9.0603 161.21 13.4358 161.21 18.5625C161.21 19.2912 160.946 19.921 160.417 20.4521C159.911 20.9598 159.294 21.214 158.567 21.214L129.728 21.214C130.212 23.7551 131.424 25.9982 133.362 27.9428C135.939 30.5283 139.055 31.8211 142.71 31.8211C146.014 31.8211 148.855 30.7712 151.233 28.672C151.718 28.2965 152.268 28.1087 152.886 28.1087Z" fill="url(#paint_linear_60)" fill-rule="nonzero" />
				<path id="Vector" d="M118.925 18.5625C118.925 23.6894 117.118 28.0641 113.507 31.6885C109.895 35.3128 105.534 37.1245 100.425 37.1245C95.3151 37.1245 90.955 35.3128 87.343 31.6885C83.7309 28.0641 81.9253 23.6894 81.9253 18.5625C81.9253 13.4358 83.7309 9.0603 87.343 5.43604C90.955 1.81252 95.3151 0 100.425 0C105.534 0 109.895 1.81252 113.507 5.43604C117.118 9.0603 118.925 13.4358 118.925 18.5625ZM100.425 5.30328C96.7689 5.30328 93.653 6.5961 91.0761 9.18175C88.4991 11.7674 87.2106 14.8938 87.2106 18.5625C87.2106 22.2307 88.4991 25.357 91.0761 27.9428C93.653 30.5283 96.7689 31.8211 100.425 31.8211C104.081 31.8211 107.197 30.5283 109.774 27.9428C112.351 25.357 113.639 22.2307 113.639 18.5625C113.639 14.8938 112.351 11.7674 109.774 9.18175C107.197 6.5961 104.081 5.30328 100.425 5.30328Z" fill="url(#paint_linear_61)" fill-rule="nonzero" />
				<path id="Vector" d="M44.9279 18.5625C44.9279 22.2307 46.2163 25.357 48.7933 27.9428C51.3702 30.5283 54.4861 31.8211 58.1418 31.8211C61.7982 31.8211 64.9141 30.5283 67.491 27.9428C70.068 25.357 71.3564 22.2307 71.3564 18.5625C71.3564 14.8938 70.068 11.7674 67.491 9.18175C64.9141 6.5961 61.7982 5.30328 58.1418 5.30328C54.4861 5.30328 51.3702 6.5961 48.7933 9.18175C46.2163 11.7674 44.9279 14.8938 44.9279 18.5625ZM44.9279 50.3831C44.9279 51.1124 44.664 51.731 44.1356 52.2394C43.6289 52.7696 43.0118 53.0351 42.2856 53.0351C41.5586 53.0351 40.9309 52.7696 40.4025 52.2394C39.8958 51.731 39.6425 51.1124 39.6425 50.3831L39.6425 18.5625C39.6425 13.4358 41.4481 9.0603 45.0602 5.43604C48.6722 1.81252 53.0323 0 58.1418 0C63.2512 0 67.6121 1.81252 71.2241 5.43604C74.8354 9.0603 76.6418 13.4358 76.6418 18.5625C76.6418 23.6894 74.8354 28.0641 71.2241 31.6885C67.6121 35.3128 63.2512 37.1245 58.1418 37.1245C53.0323 37.1245 48.6722 35.3128 45.0602 31.6885C45.0158 31.6439 44.9723 31.6002 44.9279 31.5556L44.9279 50.3831Z" fill="url(#paint_linear_62)" fill-rule="nonzero" />
				<path id="Vector" d="M0 2.65201C0 1.92263 0.253255 1.30413 0.759843 0.795752C1.28838 0.265497 1.91608 0 2.64277 0C3.36954 0 3.98627 0.265497 4.49279 0.795752C5.02132 1.30413 5.28562 1.92263 5.28562 2.65201L5.28562 4.80623C8.58909 1.60208 12.5533 0 17.1782 0C21.9132 0 25.9546 1.69032 29.3019 5.07172C32.672 8.43049 34.3566 12.4854 34.3566 17.2366L34.3566 34.4725C34.3566 35.2018 34.0918 35.8317 33.5634 36.3619C33.0568 36.8703 32.4404 37.1245 31.7134 37.1245C30.9866 37.1245 30.3588 36.8703 29.8303 36.3619C29.3237 35.8317 29.0711 35.2018 29.0711 34.4725L29.0711 17.2366C29.0711 13.9442 27.9038 11.1376 25.5688 8.81743C23.2566 6.47467 20.4594 5.30328 17.1782 5.30328C13.8967 5.30328 11.0887 6.47467 8.75425 8.81743C6.44185 11.1376 5.28562 13.9442 5.28562 17.2366L5.28562 34.4725C5.28562 35.2018 5.02132 35.8317 4.49279 36.3619C3.98627 36.8703 3.36954 37.1245 2.64277 37.1245C1.91608 37.1245 1.28838 36.8703 0.759843 36.3619C0.253255 35.8317 0 35.2018 0 34.4725L0 2.65201Z" fill="url(#paint_linear_63)" fill-rule="nonzero" />
			</g>
		</g>
	</mask>
	<defs>
		<linearGradient id="paint_linear_32" x1="118.381409" x2="210.993561" y1="132.161804" y2="132.161804" gradientUnits="userSpaceOnUse">
			<stop stop-color="rgb(255,255,255)" offset="0" stop-opacity="1" />
			<stop stop-color="rgb(153,153,153)" offset="1" stop-opacity="1" />
		</linearGradient>
		<linearGradient id="paint_linear_33" x1="467.183472" x2="559.795959" y1="132.161804" y2="132.161804" gradientUnits="userSpaceOnUse">
			<stop stop-color="rgb(255,255,255)" offset="0" stop-opacity="1" />
			<stop stop-color="rgb(153,153,153)" offset="1" stop-opacity="1" />
		</linearGradient>
		<linearGradient id="paint_linear_34" x1="564.160217" x2="669.402588" y1="132.161804" y2="132.161804" gradientUnits="userSpaceOnUse">
			<stop stop-color="rgb(255,255,255)" offset="0" stop-opacity="1" />
			<stop stop-color="rgb(153,153,153)" offset="1" stop-opacity="1" />
		</linearGradient>
		<linearGradient id="paint_linear_35" x1="352.170959" x2="444.783508" y1="132.161804" y2="132.161804" gradientUnits="userSpaceOnUse">
			<stop stop-color="rgb(255,255,255)" offset="0" stop-opacity="1" />
			<stop stop-color="rgb(153,153,153)" offset="1" stop-opacity="1" />
		</linearGradient>
		<linearGradient id="paint_linear_36" x1="683.688049" x2="776.300537" y1="132.161804" y2="132.161804" gradientUnits="userSpaceOnUse">
			<stop stop-color="rgb(255,255,255)" offset="0" stop-opacity="1" />
			<stop stop-color="rgb(153,153,153)" offset="1" stop-opacity="1" />
		</linearGradient>
		<linearGradient id="paint_linear_37" x1="3.37208939" x2="25.9239483" y1="132.161804" y2="132.161804" gradientUnits="userSpaceOnUse">
			<stop stop-color="rgb(255,255,255)" offset="0" stop-opacity="1" />
			<stop stop-color="rgb(153,153,153)" offset="1" stop-opacity="1" />
		</linearGradient>
		<linearGradient id="paint_linear_38" x1="3.37208939" x2="95.9849701" y1="98.3704376" y2="98.3704376" gradientUnits="userSpaceOnUse">
			<stop stop-color="rgb(255,255,255)" offset="0" stop-opacity="1" />
			<stop stop-color="rgb(153,153,153)" offset="1" stop-opacity="1" />
		</linearGradient>
		<linearGradient id="paint_linear_39" x1="798.698608" x2="901.210388" y1="132.161804" y2="132.161804" gradientUnits="userSpaceOnUse">
			<stop stop-color="rgb(255,255,255)" offset="0" stop-opacity="1" />
			<stop stop-color="rgb(153,153,153)" offset="1" stop-opacity="1" />
		</linearGradient>
		<linearGradient id="paint_linear_40" x1="231.14595" x2="331.124329" y1="132.161789" y2="132.161789" gradientUnits="userSpaceOnUse">
			<stop stop-color="rgb(255,255,255)" offset="0" stop-opacity="1" />
			<stop stop-color="rgb(153,153,153)" offset="1" stop-opacity="1" />
		</linearGradient>
		<linearGradient id="paint_linear_41" x1="73.2826233" x2="95.8345032" y1="132.161804" y2="132.161804" gradientUnits="userSpaceOnUse">
			<stop stop-color="rgb(255,255,255)" offset="0" stop-opacity="1" />
			<stop stop-color="rgb(153,153,153)" offset="1" stop-opacity="1" />
		</linearGradient>
		<linearGradient id="paint_linear_42" x1="73.2826233" x2="95.8345032" y1="173.648209" y2="173.648209" gradientUnits="userSpaceOnUse">
			<stop stop-color="rgb(255,255,255)" offset="0" stop-opacity="1" />
			<stop stop-color="rgb(153,153,153)" offset="1" stop-opacity="1" />
		</linearGradient>
		<linearGradient id="paint_linear_43" x1="866.836975" x2="903.835876" y1="18.5621624" y2="18.5621624" gradientUnits="userSpaceOnUse">
			<stop stop-color="rgb(255,255,255)" offset="0" stop-opacity="1" />
			<stop stop-color="rgb(153,153,153)" offset="1" stop-opacity="1" />
		</linearGradient>
		<linearGradient id="paint_linear_44" x1="832.481995" x2="861.550903" y1="18.5621605" y2="18.5621605" gradientUnits="userSpaceOnUse">
			<stop stop-color="rgb(255,255,255)" offset="0" stop-opacity="1" />
			<stop stop-color="rgb(153,153,153)" offset="1" stop-opacity="1" />
		</linearGradient>
		<linearGradient id="paint_linear_45" x1="774.336914" x2="827.197815" y1="18.5621624" y2="18.5621624" gradientUnits="userSpaceOnUse">
			<stop stop-color="rgb(255,255,255)" offset="0" stop-opacity="1" />
			<stop stop-color="rgb(153,153,153)" offset="1" stop-opacity="1" />
		</linearGradient>
		<linearGradient id="paint_linear_46" x1="737.343567" x2="768.818481" y1="18.5621605" y2="18.5621605" gradientUnits="userSpaceOnUse">
			<stop stop-color="rgb(255,255,255)" offset="0" stop-opacity="1" />
			<stop stop-color="rgb(153,153,153)" offset="1" stop-opacity="1" />
		</linearGradient>
		<linearGradient id="paint_linear_47" x1="701.659241" x2="732.05188" y1="18.5621624" y2="18.5621624" gradientUnits="userSpaceOnUse">
			<stop stop-color="rgb(255,255,255)" offset="0" stop-opacity="1" />
			<stop stop-color="rgb(153,153,153)" offset="1" stop-opacity="1" />
		</linearGradient>
		<linearGradient id="paint_linear_48" x1="659.379822" x2="696.376892" y1="18.5621624" y2="18.5621624" gradientUnits="userSpaceOnUse">
			<stop stop-color="rgb(255,255,255)" offset="0" stop-opacity="1" />
			<stop stop-color="rgb(153,153,153)" offset="1" stop-opacity="1" />
		</linearGradient>
		<linearGradient id="paint_linear_49" x1="617.096619" x2="654.095581" y1="26.5175285" y2="26.5175285" gradientUnits="userSpaceOnUse">
			<stop stop-color="rgb(255,255,255)" offset="0" stop-opacity="1" />
			<stop stop-color="rgb(153,153,153)" offset="1" stop-opacity="1" />
		</linearGradient>
		<linearGradient id="paint_linear_50" x1="558.949707" x2="611.806885" y1="18.5621605" y2="18.5621605" gradientUnits="userSpaceOnUse">
			<stop stop-color="rgb(255,255,255)" offset="0" stop-opacity="1" />
			<stop stop-color="rgb(153,153,153)" offset="1" stop-opacity="1" />
		</linearGradient>
		<linearGradient id="paint_linear_51" x1="521.95813" x2="553.440491" y1="18.5621624" y2="18.5621624" gradientUnits="userSpaceOnUse">
			<stop stop-color="rgb(255,255,255)" offset="0" stop-opacity="1" />
			<stop stop-color="rgb(153,153,153)" offset="1" stop-opacity="1" />
		</linearGradient>
		<linearGradient id="paint_linear_52" x1="479.665771" x2="516.664673" y1="18.5621624" y2="18.5621624" gradientUnits="userSpaceOnUse">
			<stop stop-color="rgb(255,255,255)" offset="0" stop-opacity="1" />
			<stop stop-color="rgb(153,153,153)" offset="1" stop-opacity="1" />
		</linearGradient>
		<linearGradient id="paint_linear_53" x1="437.38446" x2="474.383362" y1="26.5175285" y2="26.5175285" gradientUnits="userSpaceOnUse">
			<stop stop-color="rgb(255,255,255)" offset="0" stop-opacity="1" />
			<stop stop-color="rgb(153,153,153)" offset="1" stop-opacity="1" />
		</linearGradient>
		<linearGradient id="paint_linear_54" x1="397.737854" x2="432.092834" y1="18.5621624" y2="18.5621624" gradientUnits="userSpaceOnUse">
			<stop stop-color="rgb(255,255,255)" offset="0" stop-opacity="1" />
			<stop stop-color="rgb(153,153,153)" offset="1" stop-opacity="1" />
		</linearGradient>
		<linearGradient id="paint_linear_55" x1="336.956177" x2="373.955078" y1="18.5621624" y2="18.5621624" gradientUnits="userSpaceOnUse">
			<stop stop-color="rgb(255,255,255)" offset="0" stop-opacity="1" />
			<stop stop-color="rgb(153,153,153)" offset="1" stop-opacity="1" />
		</linearGradient>
		<linearGradient id="paint_linear_56" x1="294.671143" x2="331.670074" y1="18.5621624" y2="18.5621624" gradientUnits="userSpaceOnUse">
			<stop stop-color="rgb(255,255,255)" offset="0" stop-opacity="1" />
			<stop stop-color="rgb(153,153,153)" offset="1" stop-opacity="1" />
		</linearGradient>
		<linearGradient id="paint_linear_57" x1="258.992401" x2="289.385101" y1="18.5621624" y2="18.5621624" gradientUnits="userSpaceOnUse">
			<stop stop-color="rgb(255,255,255)" offset="0" stop-opacity="1" />
			<stop stop-color="rgb(153,153,153)" offset="1" stop-opacity="1" />
		</linearGradient>
		<linearGradient id="paint_linear_58" x1="200.850983" x2="253.70816" y1="18.5621605" y2="18.5621605" gradientUnits="userSpaceOnUse">
			<stop stop-color="rgb(255,255,255)" offset="0" stop-opacity="1" />
			<stop stop-color="rgb(153,153,153)" offset="1" stop-opacity="1" />
		</linearGradient>
		<linearGradient id="paint_linear_59" x1="166.493835" x2="195.564926" y1="18.5621605" y2="18.5621605" gradientUnits="userSpaceOnUse">
			<stop stop-color="rgb(255,255,255)" offset="0" stop-opacity="1" />
			<stop stop-color="rgb(153,153,153)" offset="1" stop-opacity="1" />
		</linearGradient>
		<linearGradient id="paint_linear_60" x1="124.211044" x2="161.210327" y1="18.5621605" y2="18.5621605" gradientUnits="userSpaceOnUse">
			<stop stop-color="rgb(255,255,255)" offset="0" stop-opacity="1" />
			<stop stop-color="rgb(153,153,153)" offset="1" stop-opacity="1" />
		</linearGradient>
		<linearGradient id="paint_linear_61" x1="81.925293" x2="118.924576" y1="18.5621605" y2="18.5621605" gradientUnits="userSpaceOnUse">
			<stop stop-color="rgb(255,255,255)" offset="0" stop-opacity="1" />
			<stop stop-color="rgb(153,153,153)" offset="1" stop-opacity="1" />
		</linearGradient>
		<linearGradient id="paint_linear_62" x1="39.6425095" x2="76.6417923" y1="26.5175285" y2="26.5175285" gradientUnits="userSpaceOnUse">
			<stop stop-color="rgb(255,255,255)" offset="0" stop-opacity="1" />
			<stop stop-color="rgb(153,153,153)" offset="1" stop-opacity="1" />
		</linearGradient>
		<linearGradient id="paint_linear_63" x1="0" x2="34.3566093" y1="18.5621605" y2="18.5621605" gradientUnits="userSpaceOnUse">
			<stop stop-color="rgb(255,255,255)" offset="0" stop-opacity="1" />
			<stop stop-color="rgb(153,153,153)" offset="1" stop-opacity="1" />
		</linearGradient>
		<filter id="pixso_custom_mask_type_alpha">
			<feColorMatrix type="matrix" values="0 0 0 0 1 0 0 0 0 1 0 0 0 0 1 0 0 0 1 0 " />
		</filter>
	</defs>
	<rect id="Логотип ПроИКТИБ_белый 1" width="904.000000" height="185.000000" x="0.000000" y="0.000000" fill="rgb(255,255,255)" fill-opacity="0" />
	<g id="Mask group" mask="url(#mask_1)">
		<g id="Group">
			<path id="Vector" d="M921.234 -69.2287L-16.9223 -69.2287L-16.9223 203.818L921.234 203.818L921.234 -69.2287Z" fill="rgb(255,255,255)" fill-rule="nonzero" />
		</g>
	</g>
</svg>
