<?xml version="1.0" encoding="UTF-8"?> <!-- Generator: Adobe Illustrator 23.1.0, SVG Export Plug-In . SVG Version: 6.00 Build 0) --> <svg xmlns="http://www.w3.org/2000/svg" xmlns:xlink="http://www.w3.org/1999/xlink" id="Yandex_Logo" x="0px" y="0px" viewBox="0 0 1080 1080" style="enable-background:new 0 0 1080 1080;" xml:space="preserve"> <style type="text/css"> .st0{fill:#CBAE81;} </style> <path class="st0" d="M540,1.1C242.4,1.1,1.1,242.4,1.1,540s241.3,538.9,538.9,538.9s538.9-241.3,538.9-538.9S837.6,1.1,540,1.1z M735,878.3H616.7V293.2H564c-96.6,0-147.2,48.3-147.2,120.4c0,81.8,34.9,119.7,107.1,168l59.5,40.1l-171,256.5H285.2l153.9-229 c-88.5-63.2-138.3-124.9-138.3-229c0-130.1,90.7-218.6,262.4-218.6h171v676.5h0.8V878.3z"></path> </svg> 